<svg id="Desktop-Mega-Menu-Copy" xmlns="http://www.w3.org/2000/svg" width="70" height="32.398" viewBox="0 0 70 32.398">
  <g id="Group-6" transform="translate(0 0)">
    <path id="Rectangle-path" d="M357.4,188.2V186l2.24.012V188.2Z" transform="translate(-318.737 -185.965)"/>
    <path id="Shape" d="M151.4,354.3,146,366.993l2.193.012,1.26-3.045,5.763.012,1.237,3.045,2.263.012-5.343-12.717Zm-1.143,7.688,2.112-5.04,2.1,5.052Z" transform="translate(-132 -334.63)"/>
    <path id="Rectangle-path_1_" d="M605.9,188.8l.012-2.2,2.24.012-.012,2.193Z" transform="translate(-538.245 -186.495)"/>
    <path id="Rectangle-path_2_" d="M314,188.005l.012-2.205,2.24.012v2.193Z" transform="translate(-280.4 -185.788)"/>
    <path id="Rectangle-path_3_" d="M45.3,306.093V303.9h2.24v2.2Z" transform="translate(-43.048 -290.11)"/>
    <path id="Rectangle-path_4_" d="M270.8,187.893V185.7l2.24.012V187.9Z" transform="translate(-242.24 -185.7)"/>
    <path id="Shape_1_" d="M28.158,357.963l6.813,9.053,1.808.012.035-12.7H34.68l-.023,8.773-6.615-8.8H26.035L26,366.993l2.135.012Z" transform="translate(-26 -334.63)"/>
    <path id="Rectangle-path_5_" d="M82.4,306.193V304h2.252l-.012,2.205Z" transform="translate(-75.82 -290.198)"/>
    <path id="Shape_2_" d="M283.563,367.028l.023-12.693-2.3-.012-3.745,6-3.722-6.02h-2.3l-.023,12.693,2.112.012.023-9.077,3.827,5.962h.07l3.9-5.973-.035,9.112Z" transform="translate(-242.858 -334.63)"/>
    <path id="Rectangle-path_6_" d="M605.2,366.107l.035-12.507h2.24l-.035,12.507Z" transform="translate(-537.627 -334.012)"/>
    <path id="Shape_3_" d="M508.527,359.6l-5.845-.012.012-5.285h-2.158l-.035,12.693,2.17.012.012-5.355,5.833.023-.012,5.343,2.147.012.035-12.7h-2.147Z" transform="translate(-445.142 -334.63)"/>
    <path id="Shape_4_" d="M85.78,222.1l7.98.023,2.217.012L96,212.721l-2.217-.012-.023,7.175-7.968-.023a5.542,5.542,0,0,0-10.885-.058l-7.957-.023.023-7.152-2.217-.012-.023,7.152H61.887l.023-7.152-2.217-.012-.023,7.152-2.87-.012.023-7.163-2.217-.012-.023,7.163-7.6-.023.023-7.152-2.928-.012a4.867,4.867,0,0,0-4.877,4.842l-.023,2.287-10.955-.035v-.023A4.889,4.889,0,0,1,33.1,214.74l1.692.012.012-2.24-1.692-.012A7.13,7.13,0,0,0,26,219.616v2.252l15.4.047.012-4.538a2.629,2.629,0,0,1,2.648-2.6h.7l-.023,7.152,30.147.07a5.583,5.583,0,0,0,5.425,4.5A5.494,5.494,0,0,0,85.78,222.1Zm-5.437,2.205a3.366,3.366,0,1,1,3.337-3.36A3.356,3.356,0,0,1,80.343,224.306Z" transform="translate(-26 -209.373)"/>
    <path id="Shape_5_" d="M396.9,359.589c-2.357-.572-2.917-1-2.917-1.972,0-.828.747-1.482,2.018-1.482a5.589,5.589,0,0,1,3.337,1.272l1.167-1.645a6.766,6.766,0,0,0-4.468-1.563c-2.45-.012-4.212,1.435-4.212,3.593-.012,2.3,1.47,3.08,4.083,3.722,2.287.537,2.777,1.015,2.777,1.925,0,.957-.852,1.575-2.182,1.563a5.636,5.636,0,0,1-3.9-1.622l-1.307,1.552a7.554,7.554,0,0,0,5.133,1.983c2.59.012,4.41-1.365,4.41-3.7C400.867,361.164,399.5,360.231,396.9,359.589Z" transform="translate(-348.682 -334.541)"/>
  </g>
</svg>
