<svg xmlns="http://www.w3.org/2000/svg" width="70" height="34.25" viewBox="0 0 70 34.25">
  <g id="Group_13479" data-name="Group 13479" transform="translate(-315.388 -191.603)">
    <path id="Path_94974" data-name="Path 94974" d="M357.233,218.838a29.217,29.217,0,0,0-6.773,2.419,33.957,33.957,0,0,0-13.787-3.048,35.081,35.081,0,0,0-15.142,3.531L315.388,191.6h41.845m0,27.235,0-27.235-29.364,7.546h-3.725v11.03h7.45v-2.612h-3.725Zm10.207,9.337c-1.693,0-2.08-.726-2.08-2.757h7.6c0-4.885-1.161-6.918-5.515-6.918-4.741,0-6,1.645-6,5.9,0,4.16,1.742,6.144,5.757,6.144,3.967,0,5.418-1.451,5.515-3.724h-3.483C339.866,208.05,339.528,208.485,338.076,208.485ZM336,203.551c0-1.644.339-2.564,1.935-2.564,1.548,0,1.935.726,1.935,2.564Zm11.755-4.4h-4.064l4.209,11.03h4.6l4.305-11.03h-3.967l-2.564,7.208Z" fill="#a50716"/>
    <path id="Path_94975" data-name="Path 94975" d="M362.044,191.6m0,0h28.2L383.62,221.74a25.759,25.759,0,0,0-14.077-3.58,40.142,40.142,0,0,0-7.5.677m.677-19.737v11.078h3.628V199.1Zm6.386.726-.194,1.113c1.161-.726,1.645-1.355,1.645-2.177a1.364,1.364,0,0,0-1.548-1.4,1.33,1.33,0,0,0-1.5,1.306C367.51,199.681,368.188,199.826,369.107,199.826Zm5.176,6.869h-3.918c.048,2.661,1.451,3.725,5.708,3.725,3.967,0,5.563-.871,5.563-3.628,0-4.354-7.353-2.177-7.353-4.789,0-.629.726-1.16,1.693-1.16,1.016,0,1.4.434,1.645,1.354h3.725c-.048-2.322-1.4-3.386-5.128-3.386-3.87,0-5.66,1.064-5.66,3.483,0,4.789,7.353,2.226,7.353,4.934,0,.822-.435,1.21-1.5,1.21C375.154,208.438,374.38,207.954,374.283,206.7Zm3,14.9a2.129,2.129,0,0,1,0,4.258,2.117,2.117,0,0,1-2.129-2.129A2.148,2.148,0,0,1,377.282,221.6Zm1.79,2.129a1.791,1.791,0,0,0-3.58,0,1.817,1.817,0,0,0,1.79,1.789A1.786,1.786,0,0,0,379.072,223.725Zm-2.516,1.064V222.66h.581c.581,0,1.016.144,1.016.676,0,.242-.145.435-.484.63l.387.822h-.387l-.339-.63h-.339v.63Zm1.113-1.452c0-.145-.194-.242-.677-.242v.532C377.331,223.627,377.669,223.627,377.669,223.337Z" transform="translate(-4.859)" fill="#a50716"/>
  </g>
</svg>
