<svg xmlns="http://www.w3.org/2000/svg" width="180" height="37.379" viewBox="0 0 180 37.379">
  <g id="Group_13488" data-name="Group 13488" transform="translate(-865.835 -520.953)">
    <path id="Path_95022" data-name="Path 95022" d="M880.023,547.553a16.538,16.538,0,0,0,14.051,7.9c8.692,0,13.477-7.5,13.477-7.5h0l.616,2h0c-4.025,5.234-11.214,8.387-19.256,8.387-9.26,0-17.246-4.417-20.921-10.787a15.737,15.737,0,0,1-2.155-7.9c0-10.323,10.33-18.689,23.077-18.689,9.005,0,16.256,3.857,20.062,9.447h0l-15.11,9.049,8.624-13.242h0c-2.468-1.552-5.495-3-8.624-3a16.3,16.3,0,0,0-16.134,16.229,15.525,15.525,0,0,0,2.294,8.121Z" transform="translate(0)" fill="#e50019" fill-rule="evenodd"/>
    <path id="Path_95023" data-name="Path 95023" d="M922.2,547.789a6.2,6.2,0,0,0-.067.912,6.07,6.07,0,1,0,.067-.912Zm22.565,0,3.022,10.18h-10.6l-2.085-6.972h0c-1.4,4.017-6.107,6.972-11.7,6.972-6.7,0-12.123-4.229-12.123-9.446,0-.244.011-.487.036-.734.476-4.869,5.705-8.712,12.087-8.712a13.777,13.777,0,0,1,9.095,3.2h0l-2.888-9.655H917.442s2.024-1.214,11-4.481,11.823,4.481,11.823,4.481h0l4.5,15.167Z" transform="translate(-1.721 -0.242)" fill="#e50019" fill-rule="evenodd"/>
    <path id="Path_95024" data-name="Path 95024" d="M979.995,547.787v10.18H969.085V535.6h0a2.98,2.98,0,0,0-5.757-1.081h0v23.449H952.622V532.62h-6.244s8.686-5.262,11.7-5.262a5.285,5.285,0,0,1,5.231,4.987c4.2-2.266,8.367-4.987,11.232-4.987a5.457,5.457,0,0,1,5.455,5.3h0v15.128Z" transform="translate(-3.051 -0.243)" fill="#e50019" fill-rule="evenodd"/>
    <path id="Path_95025" data-name="Path 95025" d="M998.261,547.779l1.517,5.018h0a3.944,3.944,0,0,0,3.966,3.872,4.015,4.015,0,0,0,4.015-4.015,4.351,4.351,0,0,0-.026-.464h0l-1.291-4.41-4.532-15.489h0a4.016,4.016,0,0,0-3.991-3.567,4.637,4.637,0,0,0-4.246,3.889h0l4.587,15.167Zm17.36,0a15.722,15.722,0,1,1,.787-4.924,15.716,15.716,0,0,1-.787,4.924Z" transform="translate(-4.513 -0.235)" fill="#e50019" fill-rule="evenodd"/>
    <path id="Path_95026" data-name="Path 95026" d="M1034.942,547.787v10.18h-10.707V532.62h-5.987s8.429-5.262,11.442-5.262a5.285,5.285,0,0,1,5.232,4.987c4.2-2.266,8.367-4.987,11.233-4.987a5.455,5.455,0,0,1,5.453,5.3h0v25.308H1040.7V535.6h0a2.98,2.98,0,0,0-5.757-1.081h0v13.269Z" transform="translate(-5.773 -0.243)" fill="#e50019" fill-rule="evenodd"/>
  </g>
</svg>
