<svg xmlns="http://www.w3.org/2000/svg" width="98.766" height="35" viewBox="0 0 98.766 35">
  <g id="Group_13484" data-name="Group 13484" transform="translate(-93.873 -350.459)">
    <g id="Group_13484-2" data-name="Group 13484" transform="translate(95.046 379.86)">
      <path id="Path_94998" data-name="Path 94998" d="M98.726,472.49h1.165v2.164h2.044V472.49h1.127V477.9h-1.127v-2.368H99.891V477.9H98.726Z" transform="translate(-98.726 -472.392)" fill="#1a1818"/>
      <path id="Path_94999" data-name="Path 94999" d="M148.876,472.49V475.9a1.058,1.058,0,0,0,1.21,1.2c.812,0,1.173-.4,1.173-1.248V472.49h1.112v3.33c0,1.458-.759,2.165-2.323,2.165s-2.322-.692-2.322-2.165v-3.33Z" transform="translate(-135.881 -472.392)" fill="#1a1818"/>
      <path id="Path_95000" data-name="Path 95000" d="M202.19,477.265a4.513,4.513,0,0,1-2.1.444,2.54,2.54,0,0,1-2.871-2.721,2.624,2.624,0,0,1,2.841-2.871c1.337,0,2.141.669,2.141,1.661v.1h-1.09a.988.988,0,0,0-1.12-1.022c-.97,0-1.593.781-1.593,2.1,0,1.27.609,1.939,1.774,1.939a3.5,3.5,0,0,0,.887-.113V475.6h-1.03v-.864h2.157Z" transform="translate(-173.413 -472.11)" fill="#1a1818"/>
      <path id="Path_95001" data-name="Path 95001" d="M250.579,472.147a2.476,2.476,0,0,1,2.578,2.759c0,1.773-.969,2.826-2.578,2.826s-2.585-1.052-2.585-2.826A2.481,2.481,0,0,1,250.579,472.147Zm-.007,4.78c.894,0,1.375-.684,1.375-2.015,0-1.307-.5-1.984-1.375-1.984s-1.368.677-1.368,1.984C249.2,476.243,249.685,476.927,250.572,476.927Z" transform="translate(-211.911 -472.132)" fill="#1a1818"/>
      <path id="Path_95002" data-name="Path 95002" d="M335.175,472.49h1.856c1.4,0,2.059.4,2.059,1.383a1.125,1.125,0,0,1-.887,1.173,1.316,1.316,0,0,1,1.113,1.352,1.415,1.415,0,0,1-.383,1.037,2.5,2.5,0,0,1-1.895.466h-1.863Zm1.863,2.194c.654,0,.948-.143.948-.661,0-.564-.286-.706-.948-.706h-.759v1.368Zm0,2.353c.8,0,1.143-.09,1.143-.767,0-.639-.353-.759-1.143-.759h-.759v1.526Z" transform="translate(-278.018 -472.392)" fill="#1a1818"/>
      <path id="Path_95003" data-name="Path 95003" d="M384.4,472.147a2.476,2.476,0,0,1,2.578,2.759c0,1.773-.97,2.826-2.578,2.826s-2.586-1.052-2.586-2.826A2.481,2.481,0,0,1,384.4,472.147Zm-.008,4.78c.894,0,1.375-.684,1.375-2.015,0-1.307-.5-1.984-1.375-1.984s-1.368.677-1.368,1.984C383.02,476.243,383.5,476.927,384.388,476.927Z" transform="translate(-313.38 -472.132)" fill="#1a1818"/>
      <path id="Path_95004" data-name="Path 95004" d="M433.84,475.837a.949.949,0,0,0,1.067,1.082c.586,0,.969-.323.969-.744,0-.534-.5-.677-1.4-.985a3.845,3.845,0,0,1-1.135-.5,1.232,1.232,0,0,1-.474-1.015c0-.939.744-1.586,2.059-1.586,1.195,0,1.871.586,1.871,1.578v.03h-1.007a.852.852,0,0,0-.939-.864c-.549,0-.887.278-.887.692,0,.5.5.654,1.405.947,1.112.369,1.661.662,1.661,1.608,0,.977-.775,1.608-2.187,1.608-1.428,0-2.142-.594-2.142-1.774v-.075Z" transform="translate(-351.973 -472.086)" fill="#1a1818"/>
      <path id="Path_95005" data-name="Path 95005" d="M481.1,475.837a.949.949,0,0,0,1.067,1.082c.586,0,.969-.323.969-.744,0-.534-.5-.677-1.4-.985a3.854,3.854,0,0,1-1.135-.5,1.231,1.231,0,0,1-.474-1.015c0-.939.744-1.586,2.059-1.586,1.2,0,1.872.586,1.872,1.578v.03h-1.008a.852.852,0,0,0-.939-.864c-.549,0-.886.278-.886.692,0,.5.5.654,1.405.947,1.112.369,1.661.662,1.661,1.608,0,.977-.775,1.608-2.187,1.608s-2.142-.594-2.142-1.774v-.075Z" transform="translate(-387.807 -472.086)" fill="#1a1818"/>
    </g>
    <g id="Group_13485" data-name="Group 13485" transform="translate(93.873 350.459)">
      <path id="Path_95006" data-name="Path 95006" d="M109.182,363.169c4.1-1.1,6.138-2.744,6.138-5.674,0-4.168-3.608-6.261-10.223-6.261H93.873v.827c2.064.076,2.557.55,2.557,2.463v19.137c0,1.913-.494,2.387-2.557,2.463v.827h12.78c6.473,0,10.357-2.608,10.357-6.819C117.01,365.226,113.218,363.417,109.182,363.169ZM104,352.048c4.174,0,5.837,1.415,5.837,5.235s-1.627,5.447-5.872,5.447h-2.511v-8.737c0-.68,0-1.326-.009-1.957C102.118,352.044,102.959,352.048,104,352.048Zm.849,24.089c-1.44,0-2.565,0-3.437.011.027-1.379.042-2.838.042-4.4v-8.065h2.724c4.563,0,6.933,2.158,6.933,6.3C111.11,374.439,109.306,376.137,104.849,376.137Z" transform="translate(-93.873 -351.047)" fill="#1a1818"/>
      <path id="Path_95007" data-name="Path 95007" d="M218.391,351.322a12.2,12.2,0,0,0-9.353,4.139A13.743,13.743,0,0,0,209,373.678a12.681,12.681,0,0,0,18.808,0,13.745,13.745,0,0,0-.033-18.217A12.276,12.276,0,0,0,218.391,351.322Zm0,25.61c-4.932,0-7.38-4.1-7.38-12.345s2.449-12.38,7.38-12.38,7.415,4.139,7.415,12.38S223.357,376.932,218.391,376.932Z" transform="translate(-178.569 -351.113)" fill="#1a1818"/>
      <path id="Path_95008" data-name="Path 95008" d="M346.17,363.052a23.09,23.09,0,0,0-5.978-2.83c-3.962-1.486-6.19-2.582-6.19-5.235,0-2.016,1.769-3.608,4.316-3.608,3.442,0,6.252,2.371,8.1,6.989h1.023V352.8a17.569,17.569,0,0,0-9.02-2.343c-4.953,0-7.959,2.794-7.959,7.039,0,4.033,2.653,6.084,7.924,8.03,4.6,1.7,6.933,3.042,6.933,5.978,0,2.724-1.981,4.528-5.2,4.528-4,0-6.54-2.448-8.645-7.639H330.5v6.272c1.228,1.237,5.935,2.322,9.055,2.322,6.226,0,9.8-2.971,9.8-7.711A7.492,7.492,0,0,0,346.17,363.052Z" transform="translate(-273.274 -350.459)" fill="#1a1818"/>
      <path id="Path_95009" data-name="Path 95009" d="M440.019,363.052a23.1,23.1,0,0,0-5.978-2.83c-3.962-1.486-6.191-2.582-6.191-5.235,0-2.016,1.769-3.608,4.316-3.608,3.442,0,6.252,2.371,8.1,6.989h1.023V352.8a17.571,17.571,0,0,0-9.02-2.343c-4.952,0-7.959,2.794-7.959,7.039,0,4.033,2.653,6.084,7.924,8.03,4.6,1.7,6.933,3.042,6.933,5.978,0,2.724-1.98,4.528-5.2,4.528-4,0-6.54-2.448-8.645-7.639h-.977v6.272c1.228,1.237,5.935,2.322,9.055,2.322,6.226,0,9.8-2.971,9.8-7.711A7.492,7.492,0,0,0,440.019,363.052Z" transform="translate(-344.437 -350.459)" fill="#1a1818"/>
    </g>
  </g>
</svg>
