<svg xmlns="http://www.w3.org/2000/svg" width="180" height="35.189" viewBox="0 0 180 35.189">
  <g id="Group_13482" data-name="Group 13482" transform="translate(-775.933 -722.345)">
    <g id="Group_13482-2" data-name="Group 13482" transform="translate(792.361 743.578)">
      <path id="Path_94986" data-name="Path 94986" d="M872.022,782.182c-6.784,5.007-16.621,7.67-25.091,7.67a45.405,45.405,0,0,1-30.649-11.692c-.635-.574-.069-1.357.7-.913a61.684,61.684,0,0,0,30.667,8.138,61.014,61.014,0,0,0,23.391-4.787C872.184,780.111,873.146,781.354,872.022,782.182Z" transform="translate(-816.008 -775.896)" fill="#f90" fill-rule="evenodd"/>
      <path id="Path_94987" data-name="Path 94987" d="M947.32,777.2c-.868-1.112-5.737-.527-7.924-.265-.662.079-.765-.5-.167-.919,3.883-2.728,10.246-1.94,10.986-1.027s-.2,7.3-3.835,10.346c-.56.468-1.092.219-.844-.4C946.355,782.894,948.188,778.315,947.32,777.2Z" transform="translate(-888.483 -774.14)" fill="#f90" fill-rule="evenodd"/>
    </g>
    <g id="Group_13483" data-name="Group 13483" transform="translate(775.933 722.345)">
      <path id="Path_94988" data-name="Path 94988" d="M939.606,726.939v-2.65a.655.655,0,0,1,.672-.672h11.879a.663.663,0,0,1,.685.669v2.273a3.708,3.708,0,0,1-.894,1.668l-6.153,8.786a13.17,13.17,0,0,1,6.776,1.455,1.21,1.21,0,0,1,.63,1.034v2.828c0,.39-.426.841-.874.606a13.684,13.684,0,0,0-12.552.023c-.413.22-.845-.224-.845-.614v-2.688a3.2,3.2,0,0,1,.442-1.822l7.129-10.228h-6.207A.66.66,0,0,1,939.606,726.939Z" transform="translate(-872.109 -723.095)" fill-rule="evenodd"/>
      <path id="Path_94989" data-name="Path 94989" d="M828.745,743h-3.614a.682.682,0,0,1-.646-.611l0-18.549a.682.682,0,0,1,.7-.668h3.366a.68.68,0,0,1,.657.622v2.422h.068a4.768,4.768,0,0,1,4.756-3.435c2.261,0,3.677,1.093,4.69,3.435a5.337,5.337,0,0,1,9.176-1.405c1.147,1.561.911,3.825.911,5.816l0,11.705a.681.681,0,0,1-.7.668H844.5a.679.679,0,0,1-.649-.666V732.5a23.71,23.71,0,0,0-.1-3.474,1.884,1.884,0,0,0-2.125-1.6,2.4,2.4,0,0,0-2.16,1.523,11.215,11.215,0,0,0-.337,3.552v9.832a.681.681,0,0,1-.7.668h-3.61a.679.679,0,0,1-.649-.666l0-9.833c0-2.069.338-5.113-2.226-5.113-2.6,0-2.5,2.966-2.5,5.113v9.832A.681.681,0,0,1,828.745,743Z" transform="translate(-804.58 -722.603)" fill-rule="evenodd"/>
      <path id="Path_94990" data-name="Path 94990" d="M986.112,722.783c5.364,0,8.265,4.606,8.265,10.461,0,5.66-3.2,10.149-8.265,10.149-5.263,0-8.131-4.606-8.131-10.344C977.981,727.272,980.883,722.783,986.112,722.783Zm.034,3.787c-2.666,0-2.834,3.63-2.834,5.894s-.034,7.1,2.8,7.1c2.8,0,2.935-3.9,2.935-6.284a17.152,17.152,0,0,0-.54-4.918A2.263,2.263,0,0,0,986.146,726.57Z" transform="translate(-895.152 -722.603)" fill-rule="evenodd"/>
      <path id="Path_94991" data-name="Path 94991" d="M1028.82,743h-3.6a.679.679,0,0,1-.648-.666l-.005-18.556a.685.685,0,0,1,.695-.606h3.351a.688.688,0,0,1,.643.52v2.837h.068c1.012-2.537,2.429-3.747,4.925-3.747a4.736,4.736,0,0,1,4.217,2.186c.945,1.483.945,3.982.945,5.777v11.672a.685.685,0,0,1-.692.585h-3.623a.682.682,0,0,1-.643-.585V732.346c0-2.03.237-5-2.261-5a2.364,2.364,0,0,0-2.091,1.483,8.237,8.237,0,0,0-.575,3.513v9.988A.691.691,0,0,1,1028.82,743Z" transform="translate(-922.639 -722.603)" fill-rule="evenodd"/>
      <path id="Path_94992" data-name="Path 94992" d="M1066.3,766.081a1.781,1.781,0,1,1,1.778,1.69A1.736,1.736,0,0,1,1066.3,766.081Z" transform="translate(-947.265 -747.154)" fill-rule="evenodd"/>
      <path id="Path_94993" data-name="Path 94993" d="M1158.732,742.846a.679.679,0,0,1-.674-.667V723.627a.68.68,0,0,1,.646-.61h1.327a.683.683,0,0,1,.694.611v2.705c.943-2.144,2.7-3.823,4.922-3.823l.14,0,.134,0c2.356,0,4.081,1.739,4.722,4.265,1-2.494,2.88-4.265,5.361-4.265l.129,0,.145,0a5.012,5.012,0,0,1,4.318,2.849c.843,1.639.81,3.825.81,5.659v11.16a.678.678,0,0,1-.648.666h-1.588a.685.685,0,0,1-.668-.576V731.019a9.662,9.662,0,0,0-.473-3.942,3.261,3.261,0,0,0-2.732-2.065,4.186,4.186,0,0,0-3.168,2.221c-.978,1.6-.944,3.045-.944,4.918v10.125a.685.685,0,0,1-.643.569h-1.58a.681.681,0,0,1-.675-.667l-.007-11.9a7.549,7.549,0,0,0-.573-3.357,3.378,3.378,0,0,0-2.727-1.909,4.222,4.222,0,0,0-2.972,1.948,7.887,7.887,0,0,0-1.045,4.528V742.18a.679.679,0,0,1-.649.666Z" transform="translate(-1001.406 -722.442)"/>
      <path id="Path_94994" data-name="Path 94994" d="M1122.454,743.236c-5.128,0-7.421-5.231-7.421-10.461,0-5.5,2.7-10.266,7.86-10.266h.273c5.027,0,7.523,5.074,7.523,10.3,0,5.542-2.767,10.422-7.961,10.422l-.134,0Zm.378-2.54a4.325,4.325,0,0,0,3.805-2.847,12.3,12.3,0,0,0,.843-5.074,11.345,11.345,0,0,0-1.079-5.425,3.9,3.9,0,0,0-7.317.468,12.928,12.928,0,0,0-.844,4.957,13.257,13.257,0,0,0,.979,5.425A4.273,4.273,0,0,0,1122.832,740.7Z" transform="translate(-976.019 -722.442)"/>
      <path id="Path_94995" data-name="Path 94995" d="M1083.456,740.619c2.3-.072,3.509-1.917,4.012-4.309a.7.7,0,0,1,.662-.528l1.523-.007a.652.652,0,0,1,.661.629c-.7,4.068-3.158,6.832-6.658,6.832l-.142,0-.132,0c-5.094,0-7.287-5.113-7.287-10.3,0-5.153,2.226-10.422,7.321-10.422h.272c3.535,0,6.058,2.724,6.606,6.795a.669.669,0,0,1-.616.608l-1.6-.018a.745.745,0,0,1-.6-.655c-.385-2.272-1.689-4.079-3.864-4.151-3.464.111-4.449,4.374-4.449,7.648C1079.169,735.9,1079.992,740.5,1083.456,740.619Z" transform="translate(-953.044 -722.442)"/>
      <path id="Path_94996" data-name="Path 94996" d="M902.152,733.885a7.094,7.094,0,0,1-.676,3.834,2.936,2.936,0,0,1-2.5,1.643c-1.386,0-2.2-1.057-2.2-2.621,0-3.078,2.761-3.638,5.376-3.638ZM905.8,742.7a.748.748,0,0,1-.854.084,8.825,8.825,0,0,1-2.072-2.409c-1.984,2.021-3.389,2.627-5.959,2.627-3.042,0-5.409-1.878-5.409-5.633a6.139,6.139,0,0,1,3.854-5.907c1.961-.86,4.7-1.017,6.8-1.252v-.469a4.626,4.626,0,0,0-.439-2.621,2.414,2.414,0,0,0-2.028-.939,2.752,2.752,0,0,0-2.9,2.17.762.762,0,0,1-.628.664l-3.5-.379a.636.636,0,0,1-.539-.756c.8-4.25,4.643-5.534,8.082-5.534a8.2,8.2,0,0,1,5.444,1.8c1.758,1.643,1.589,3.834,1.589,6.22V736a4.937,4.937,0,0,0,1.365,3.35.681.681,0,0,1-.013.96c-.738.619-2.05,1.758-2.772,2.4Z" transform="translate(-844.125 -722.345)" fill-rule="evenodd"/>
      <path id="Path_94997" data-name="Path 94997" d="M786.583,733.885a7.091,7.091,0,0,1-.676,3.834,2.936,2.936,0,0,1-2.5,1.643c-1.386,0-2.2-1.057-2.2-2.621,0-3.078,2.761-3.638,5.376-3.638Zm3.644,8.812a.748.748,0,0,1-.854.084,8.824,8.824,0,0,1-2.072-2.409c-1.984,2.021-3.389,2.627-5.958,2.627-3.043,0-5.41-1.878-5.41-5.633a6.139,6.139,0,0,1,3.854-5.907c1.961-.86,4.7-1.017,6.8-1.252v-.469a4.63,4.63,0,0,0-.439-2.621,2.415,2.415,0,0,0-2.028-.939,2.752,2.752,0,0,0-2.9,2.17.764.764,0,0,1-.629.664l-3.5-.379a.636.636,0,0,1-.539-.756c.8-4.25,4.642-5.534,8.082-5.534a8.2,8.2,0,0,1,5.443,1.8c1.758,1.643,1.589,3.834,1.589,6.22V736a4.939,4.939,0,0,0,1.364,3.35.68.68,0,0,1-.011.96c-.738.619-2.05,1.758-2.772,2.4Z" transform="translate(-775.933 -722.345)" fill-rule="evenodd"/>
    </g>
  </g>
</svg>
