<svg xmlns="http://www.w3.org/2000/svg" width="100" height="100" viewBox="0 0 100 100">
  <g id="Group_13641" data-name="Group 13641" transform="translate(-247 -443.5)">
    <rect id="Rectangle_5248" data-name="Rectangle 5248" width="100" height="100" rx="50" transform="translate(247 443.5)" fill="#e1f4fc"/>
    <g id="Iconly_Light_Profile" data-name="Iconly/Light/Profile" transform="translate(277 473.5)">
      <g id="Profile" transform="translate(6.667 4.167)">
        <circle id="Ellipse_736" cx="7.963" cy="7.963" r="7.963" transform="translate(4.668 0)" fill="none" stroke="#29abe2" stroke-linecap="round" stroke-linejoin="round" stroke-miterlimit="10" stroke-width="2.5"/>
        <path id="Path_33945" d="M0,5.027A3.692,3.692,0,0,1,.366,3.41c.763-1.526,2.914-2.334,4.7-2.7A27.979,27.979,0,0,1,8.97.16a41.754,41.754,0,0,1,7.307,0,28.3,28.3,0,0,1,3.905.549c1.785.366,3.936,1.1,4.7,2.7a3.783,3.783,0,0,1,0,3.249c-.763,1.6-2.914,2.334-4.7,2.685a26.194,26.194,0,0,1-3.905.564,43.036,43.036,0,0,1-5.95.092A6.776,6.776,0,0,1,8.97,9.908a25.706,25.706,0,0,1-3.89-.564C3.28,8.993,1.144,8.261.366,6.659A3.8,3.8,0,0,1,0,5.027Z" transform="translate(0 21.976)" fill="none" stroke="#29abe2" stroke-linecap="round" stroke-linejoin="round" stroke-miterlimit="10" stroke-width="2.5"/>
      </g>
    </g>
  </g>
</svg>
