<svg xmlns="http://www.w3.org/2000/svg" width="180" height="52" viewBox="0 0 180 52">
  <g id="Group_601" data-name="Group 601" transform="translate(12031 16684.02)">
    <path id="Path_11" data-name="Path 11" d="M1211,572.768a5.2,5.2,0,0,1-5.188,5.213H1036.188a5.2,5.2,0,0,1-5.188-5.213V531.2a5.208,5.208,0,0,1,5.188-5.219h169.625A5.2,5.2,0,0,1,1211,531.2Z" transform="translate(-13062 -17210)"/>
    <path id="Path_13" data-name="Path 13" d="M1070.17,550.719a7.528,7.528,0,0,1,3.68-6.323,7.981,7.981,0,0,0-6.23-3.286c-2.63-.27-5.17,1.53-6.51,1.53-1.36,0-3.42-1.5-5.63-1.46a8.321,8.321,0,0,0-6.99,4.155c-3.02,5.1-.77,12.594,2.13,16.716,1.45,2.019,3.14,4.273,5.35,4.194,2.17-.087,2.98-1.347,5.59-1.347,2.59,0,3.35,1.347,5.61,1.3,2.33-.036,3.79-2.028,5.19-4.065a16.667,16.667,0,0,0,2.37-4.71A7.316,7.316,0,0,1,1070.17,550.719Z" transform="translate(-13062 -17210)" fill="#fff"/>
    <path id="Path_14" data-name="Path 14" d="M1065.9,538.4a7.289,7.289,0,0,0,1.75-5.316,7.848,7.848,0,0,0-5.02,2.527,6.958,6.958,0,0,0-1.78,5.12A6.455,6.455,0,0,0,1065.9,538.4Z" transform="translate(-13062 -17210)" fill="#fff"/>
    <path id="Path_15" data-name="Path 15" d="M1101.53,565.955h-3.03l-1.66-5.082h-5.77l-1.58,5.082h-2.94l5.71-17.3h3.53Zm-5.19-7.214-1.5-4.517c-.16-.462-.46-1.548-.89-3.259h-.06q-.255,1.1-.84,3.259l-1.47,4.517Z" transform="translate(-13062 -17210)" fill="#fff"/>
    <path id="Path_16" data-name="Path 16" d="M1116.22,559.565a6.966,6.966,0,0,1-1.77,5.029,5.212,5.212,0,0,1-3.92,1.644,3.935,3.935,0,0,1-3.63-1.771h-.06v6.572H1104V557.587c0-1.333-.04-2.7-.11-4.106h2.5l.16,1.977h.06a4.747,4.747,0,0,1,4.31-2.233,4.8,4.8,0,0,1,3.78,1.744A6.767,6.767,0,0,1,1116.22,559.565Zm-2.9.1a5.059,5.059,0,0,0-.84-3,2.945,2.945,0,0,0-2.48-1.232,3.012,3.012,0,0,0-1.91.68,3.109,3.109,0,0,0-1.11,1.785,3.518,3.518,0,0,0-.14.845v2.08a3.29,3.29,0,0,0,.86,2.3,2.865,2.865,0,0,0,2.22.937,2.93,2.93,0,0,0,2.5-1.206A5.2,5.2,0,0,0,1113.32,559.666Z" transform="translate(-13062 -17210)" fill="#fff"/>
    <path id="Path_17" data-name="Path 17" d="M1130.93,559.565a7,7,0,0,1-1.76,5.029,5.228,5.228,0,0,1-3.92,1.644,3.963,3.963,0,0,1-3.64-1.771h-.05v6.572h-2.84V557.587c0-1.333-.04-2.7-.11-4.106h2.5l.16,1.977h.05a5.142,5.142,0,0,1,8.1-.489A6.763,6.763,0,0,1,1130.93,559.565Zm-2.89.1a5.062,5.062,0,0,0-.85-3,2.927,2.927,0,0,0-2.47-1.232,3.012,3.012,0,0,0-1.91.68,3.175,3.175,0,0,0-1.12,1.785,3.985,3.985,0,0,0-.13.845v2.08a3.327,3.327,0,0,0,.85,2.3,2.89,2.89,0,0,0,2.23.937,2.942,2.942,0,0,0,2.5-1.206A5.2,5.2,0,0,0,1128.04,559.666Z" transform="translate(-13062 -17210)" fill="#fff"/>
    <path id="Path_18" data-name="Path 18" d="M1147.39,561.1a4.568,4.568,0,0,1-1.58,3.593,7.114,7.114,0,0,1-4.83,1.514,8.638,8.638,0,0,1-4.6-1.077l.66-2.31a7.912,7.912,0,0,0,4.11,1.105,3.949,3.949,0,0,0,2.5-.708,2.3,2.3,0,0,0,.89-1.89,2.352,2.352,0,0,0-.74-1.773,6.865,6.865,0,0,0-2.44-1.338q-4.665-1.693-4.66-4.961a4.338,4.338,0,0,1,1.63-3.495,6.545,6.545,0,0,1,4.34-1.363,8.8,8.8,0,0,1,4.03.822l-.71,2.259a7.139,7.139,0,0,0-3.4-.795,3.489,3.489,0,0,0-2.34.719,2.04,2.04,0,0,0-.71,1.566,2.083,2.083,0,0,0,.82,1.694,9.192,9.192,0,0,0,2.58,1.335,8.74,8.74,0,0,1,3.37,2.1A4.322,4.322,0,0,1,1147.39,561.1Z" transform="translate(-13062 -17210)" fill="#fff"/>
    <path id="Path_19" data-name="Path 19" d="M1156.78,555.56h-3.13v6.057c0,1.541.55,2.31,1.66,2.31a5.114,5.114,0,0,0,1.26-.129l.08,2.105a6.605,6.605,0,0,1-2.21.307,3.448,3.448,0,0,1-2.63-1,4.834,4.834,0,0,1-.95-3.363v-6.288h-1.87v-2.08h1.87v-2.284l2.79-.822v3.106h3.13Z" transform="translate(-13062 -17210)" fill="#fff"/>
    <path id="Path_20" data-name="Path 20" d="M1170.92,559.615a6.747,6.747,0,0,1-1.68,4.723,6.1,6.1,0,0,1-4.69,1.9,5.8,5.8,0,0,1-4.49-1.821,6.553,6.553,0,0,1-1.67-4.594,6.676,6.676,0,0,1,1.72-4.748,6.055,6.055,0,0,1,4.65-1.848,5.919,5.919,0,0,1,4.53,1.822A6.46,6.46,0,0,1,1170.92,559.615Zm-2.95.09a5.505,5.505,0,0,0-.76-2.96,2.825,2.825,0,0,0-2.55-1.493,2.864,2.864,0,0,0-2.61,1.493,5.61,5.61,0,0,0-.76,3.012,5.5,5.5,0,0,0,.76,2.959,2.882,2.882,0,0,0,2.58,1.492,2.842,2.842,0,0,0,2.55-1.518A5.475,5.475,0,0,0,1167.97,559.705Z" transform="translate(-13062 -17210)" fill="#fff"/>
    <path id="Path_21" data-name="Path 21" d="M1180.16,555.918a5.082,5.082,0,0,0-.89-.076,2.708,2.708,0,0,0-2.32,1.105,4.031,4.031,0,0,0-.71,2.463v6.546h-2.84l.02-8.547c0-1.437-.03-2.747-.1-3.927h2.47l.11,2.387h.07a4.271,4.271,0,0,1,1.43-1.976,3.468,3.468,0,0,1,2.05-.668,4.756,4.756,0,0,1,.71.05Z" transform="translate(-13062 -17210)" fill="#fff"/>
    <path id="Path_22" data-name="Path 22" d="M1192.87,559.128a6.434,6.434,0,0,1-.1,1.257h-8.53a3.609,3.609,0,0,0,1.24,2.825,4.3,4.3,0,0,0,2.79.872,9.668,9.668,0,0,0,3.45-.59l.45,1.924a10.938,10.938,0,0,1-4.29.771,6.3,6.3,0,0,1-4.68-1.707,6.218,6.218,0,0,1-1.7-4.581,7.009,7.009,0,0,1,1.59-4.7,5.489,5.489,0,0,1,4.47-2,4.82,4.82,0,0,1,4.19,2A6.624,6.624,0,0,1,1192.87,559.128Zm-2.71-.719a3.648,3.648,0,0,0-.55-2.131,2.5,2.5,0,0,0-2.26-1.155,2.734,2.734,0,0,0-2.27,1.129,4.131,4.131,0,0,0-.84,2.156h5.92Z" transform="translate(-13062 -17210)" fill="#fff"/>
    <path id="Path_23" data-name="Path 23" d="M1095.4,538.012a4.213,4.213,0,0,1-1.41,3.455,5.71,5.71,0,0,1-3.71,1.071,17.618,17.618,0,0,1-2.05-.1v-8.36a15.612,15.612,0,0,1,2.41-.177,5.256,5.256,0,0,1,3.45.971A3.878,3.878,0,0,1,1095.4,538.012Zm-1.47.038a3.056,3.056,0,0,0-.81-2.283,3.243,3.243,0,0,0-2.36-.8,6.087,6.087,0,0,0-1.13.089v6.356a7.673,7.673,0,0,0,.95.037,3.34,3.34,0,0,0,2.47-.869A3.438,3.438,0,0,0,1093.93,538.05Z" transform="translate(-13062 -17210)" fill="#fff"/>
    <path id="Path_24" data-name="Path 24" d="M1103.21,539.348a3.277,3.277,0,0,1-.83,2.321,2.972,2.972,0,0,1-2.3.933,2.825,2.825,0,0,1-2.2-.9,3.2,3.2,0,0,1-.82-2.256,3.3,3.3,0,0,1,.84-2.333,3,3,0,0,1,2.29-.907,2.9,2.9,0,0,1,2.22.894A3.2,3.2,0,0,1,1103.21,539.348Zm-1.45.044a2.708,2.708,0,0,0-.37-1.454,1.4,1.4,0,0,0-1.26-.734,1.415,1.415,0,0,0-1.28.734,2.757,2.757,0,0,0-.37,1.479,2.712,2.712,0,0,0,.37,1.455,1.431,1.431,0,0,0,1.27.733,1.4,1.4,0,0,0,1.25-.746A2.691,2.691,0,0,0,1101.76,539.392Z" transform="translate(-13062 -17210)" fill="#fff"/>
    <path id="Path_25" data-name="Path 25" d="M1113.69,536.335l-1.97,6.128h-1.28l-.81-2.661a18.548,18.548,0,0,1-.51-1.98h-.03a13.43,13.43,0,0,1-.5,1.98l-.87,2.661h-1.29l-1.85-6.128h1.44l.71,2.913q.255,1.034.42,1.967h.03a18.252,18.252,0,0,1,.52-1.954l.89-2.925h1.14l.85,2.863q.315,1.047.51,2.017h.04a17.532,17.532,0,0,1,.42-2.017l.76-2.863h1.38Z" transform="translate(-13062 -17210)" fill="#fff"/>
    <path id="Path_26" data-name="Path 26" d="M1120.93,542.463h-1.4v-3.51q0-1.623-1.26-1.622a1.27,1.27,0,0,0-1.01.445,1.549,1.549,0,0,0-.39,1.051v3.635h-1.4v-4.376c0-.538-.02-1.122-.05-1.754h1.23l.06.958h.04a2.057,2.057,0,0,1,.73-.739,2.4,2.4,0,0,1,1.26-.345,2.051,2.051,0,0,1,1.47.555,2.667,2.667,0,0,1,.72,2.031v3.671Z" transform="translate(-13062 -17210)" fill="#fff"/>
    <path id="Path_27" data-name="Path 27" d="M1124.78,542.463h-1.39v-8.94h1.39Z" transform="translate(-13062 -17210)" fill="#fff"/>
    <path id="Path_28" data-name="Path 28" d="M1133.01,539.348a3.322,3.322,0,0,1-.83,2.321,2.987,2.987,0,0,1-2.3.933,2.861,2.861,0,0,1-2.21-.9,3.241,3.241,0,0,1-.82-2.256,3.308,3.308,0,0,1,.85-2.333,2.988,2.988,0,0,1,2.28-.907,2.911,2.911,0,0,1,2.23.894A3.2,3.2,0,0,1,1133.01,539.348Zm-1.45.044a2.8,2.8,0,0,0-.37-1.454,1.466,1.466,0,0,0-2.54,0,2.757,2.757,0,0,0-.37,1.479,2.712,2.712,0,0,0,.37,1.455,1.42,1.42,0,0,0,1.27.733,1.4,1.4,0,0,0,1.25-.746A2.691,2.691,0,0,0,1131.56,539.392Z" transform="translate(-13062 -17210)" fill="#fff"/>
    <path id="Path_29" data-name="Path 29" d="M1139.77,542.463h-1.25l-.11-.706h-.03a2.187,2.187,0,0,1-1.84.845,1.913,1.913,0,0,1-1.43-.555,1.715,1.715,0,0,1-.5-1.248,1.888,1.888,0,0,1,.97-1.715,5.088,5.088,0,0,1,2.71-.58v-.114c0-.807-.44-1.21-1.31-1.21a3.007,3.007,0,0,0-1.64.453l-.28-.894a4.121,4.121,0,0,1,2.16-.529,2.208,2.208,0,0,1,2.46,2.535V541A9.339,9.339,0,0,0,1139.77,542.463Zm-1.45-2.106v-.945q-2.31-.039-2.31,1.235a.911.911,0,0,0,.27.719.991.991,0,0,0,.68.239,1.465,1.465,0,0,0,.86-.283,1.166,1.166,0,0,0,.48-.726A1.573,1.573,0,0,0,1138.32,540.357Z" transform="translate(-13062 -17210)" fill="#fff"/>
    <path id="Path_30" data-name="Path 30" d="M1147.71,542.463h-1.24l-.06-.984h-.04a2.1,2.1,0,0,1-2.02,1.123,2.389,2.389,0,0,1-1.89-.87,3.331,3.331,0,0,1-.75-2.256,3.469,3.469,0,0,1,.82-2.409,2.52,2.52,0,0,1,1.94-.858,1.907,1.907,0,0,1,1.77.832h.03v-3.518h1.39v7.289C1147.66,541.409,1147.68,541.959,1147.71,542.463Zm-1.44-2.584v-1.022a2.332,2.332,0,0,0-.04-.429,1.547,1.547,0,0,0-.51-.826,1.386,1.386,0,0,0-.93-.334,1.449,1.449,0,0,0-1.23.606,2.531,2.531,0,0,0-.45,1.551,2.354,2.354,0,0,0,.43,1.475,1.446,1.446,0,0,0,1.22.6,1.341,1.341,0,0,0,1.1-.5A1.659,1.659,0,0,0,1146.27,539.879Z" transform="translate(-13062 -17210)" fill="#fff"/>
    <path id="Path_31" data-name="Path 31" d="M1159.66,539.348a3.315,3.315,0,0,1-.82,2.321,3.008,3.008,0,0,1-2.31.933,2.839,2.839,0,0,1-2.2-.9,3.2,3.2,0,0,1-.82-2.256,3.3,3.3,0,0,1,.84-2.333,3,3,0,0,1,2.29-.907,2.9,2.9,0,0,1,2.22.894A3.157,3.157,0,0,1,1159.66,539.348Zm-1.44.044a2.712,2.712,0,0,0-.38-1.454,1.38,1.38,0,0,0-1.25-.734,1.4,1.4,0,0,0-1.28.734,2.673,2.673,0,0,0-.38,1.479,2.715,2.715,0,0,0,.38,1.455,1.443,1.443,0,0,0,2.52-.013A2.691,2.691,0,0,0,1158.22,539.392Z" transform="translate(-13062 -17210)" fill="#fff"/>
    <path id="Path_32" data-name="Path 32" d="M1167.18,542.463h-1.4v-3.51c0-1.082-.42-1.622-1.27-1.622a1.25,1.25,0,0,0-1,.445,1.549,1.549,0,0,0-.39,1.051v3.635h-1.4v-4.376c0-.538-.02-1.122-.05-1.754h1.23l.06.958h.04a2.027,2.027,0,0,1,.72-.739,2.431,2.431,0,0,1,1.27-.345,2.011,2.011,0,0,1,1.46.555,2.634,2.634,0,0,1,.73,2.031v3.671Z" transform="translate(-13062 -17210)" fill="#fff"/>
    <path id="Path_33" data-name="Path 33" d="M1176.58,537.355h-1.54v2.977c0,.757.28,1.135.82,1.135a2.475,2.475,0,0,0,.62-.064l.04,1.034a3.256,3.256,0,0,1-1.09.152,1.692,1.692,0,0,1-1.29-.491,2.372,2.372,0,0,1-.47-1.653v-3.09h-.92v-1.02h.92v-1.123l1.37-.4v1.524h1.54v1.022Z" transform="translate(-13062 -17210)" fill="#fff"/>
    <path id="Path_34" data-name="Path 34" d="M1183.98,542.463h-1.4v-3.484c0-1.1-.42-1.648-1.27-1.648a1.331,1.331,0,0,0-1.33.955,1.734,1.734,0,0,0-.06.49v3.686h-1.4v-8.939h1.4v3.693h.02a2.126,2.126,0,0,1,1.89-1.007,1.976,1.976,0,0,1,1.44.555,2.761,2.761,0,0,1,.71,2.055v3.644Z" transform="translate(-13062 -17210)" fill="#fff"/>
    <path id="Path_35" data-name="Path 35" d="M1191.61,539.109a3.524,3.524,0,0,1-.05.617h-4.19a1.8,1.8,0,0,0,.6,1.388,2.15,2.15,0,0,0,1.38.429,4.728,4.728,0,0,0,1.69-.29l.22.946a5.409,5.409,0,0,1-2.11.378,3.116,3.116,0,0,1-2.3-.838,3.072,3.072,0,0,1-.83-2.25,3.447,3.447,0,0,1,.78-2.308,2.69,2.69,0,0,1,2.19-.983,2.357,2.357,0,0,1,2.06.983A3.245,3.245,0,0,1,1191.61,539.109Zm-1.33-.352a1.878,1.878,0,0,0-.27-1.047,1.251,1.251,0,0,0-1.12-.568,1.351,1.351,0,0,0-1.11.555,2,2,0,0,0-.41,1.06Z" transform="translate(-13062 -17210)" fill="#fff"/>
  </g>
</svg>
