<svg xmlns="http://www.w3.org/2000/svg" width="180" height="52" viewBox="0 0 180 52">
  <g id="Group_602" data-name="Group 602" transform="translate(12031 16606)">
    <path id="Path_36" data-name="Path 36" d="M1204.341,656H1037.669a6.609,6.609,0,0,1-6.669-6.5v-39a6.609,6.609,0,0,1,6.669-6.5h166.671a6.6,6.6,0,0,1,6.659,6.5v39A6.6,6.6,0,0,1,1204.341,656Z" transform="translate(-13062 -17210)"/>
    <path id="Path_38" data-name="Path 38" d="M1094.14,617.317a3.525,3.525,0,0,1-.99,2.6,3.955,3.955,0,0,1-2.94,1.155,4.1,4.1,0,0,1-2.94-1.168,4.09,4.09,0,0,1,0-5.808,4.084,4.084,0,0,1,2.94-1.175,4.287,4.287,0,0,1,1.64.33,3.272,3.272,0,0,1,1.25.87l-.7.685a2.733,2.733,0,0,0-2.19-.919,3.11,3.11,0,0,0-2.19.862,3.239,3.239,0,0,0,0,4.5,3.138,3.138,0,0,0,2.19.863,3.074,3.074,0,0,0,2.23-.87,2.425,2.425,0,0,0,.67-1.581h-2.9v-.939h3.87a3.05,3.05,0,0,1,.06.59Z" transform="translate(-13062 -17210)" fill="#fff"/>
    <path id="Path_39" data-name="Path 39" d="M1100.27,614.06h-3.63v2.47h3.28v.939h-3.28v2.47h3.63v.958h-4.66V613.1h4.66Z" transform="translate(-13062 -17210)" fill="#fff"/>
    <path id="Path_40" data-name="Path 40" d="M1104.6,620.9h-1.02V614.06h-2.23V613.1h5.48v.957h-2.23V620.9Z" transform="translate(-13062 -17210)" fill="#fff"/>
    <path id="Path_41" data-name="Path 41" d="M1110.81,620.9V613.1h1.02V620.9Z" transform="translate(-13062 -17210)" fill="#fff"/>
    <path id="Path_42" data-name="Path 42" d="M1116.38,620.9h-1.02V614.06h-2.23V613.1h5.49v.957h-2.24Z" transform="translate(-13062 -17210)" fill="#fff"/>
    <path id="Path_43" data-name="Path 43" d="M1129.01,619.894a4.119,4.119,0,1,1-2.93-6.97,4.094,4.094,0,0,1,2.93,6.97Zm-5.1-.653a3.126,3.126,0,0,0,4.34,0,3.266,3.266,0,0,0,0-4.482,3.126,3.126,0,0,0-4.34,0,3.266,3.266,0,0,0,0,4.482Z" transform="translate(-13062 -17210)" fill="#fff"/>
    <path id="Path_44" data-name="Path 44" d="M1131.63,620.9V613.1h1.25l3.88,6.061h.04l-.04-1.5V613.1h1.03V620.9h-1.08l-4.06-6.361h-.04l.04,1.505V620.9Z" transform="translate(-13062 -17210)" fill="#fff"/>
    <path id="Path_45" data-name="Path 45" d="M1121.72,632.278a5.531,5.531,0,1,0,5.69,5.53A5.515,5.515,0,0,0,1121.72,632.278Zm0,8.881a3.355,3.355,0,1,1,3.2-3.351,3.233,3.233,0,0,1-3.2,3.351Zm-12.4-8.881a5.531,5.531,0,1,0,5.69,5.53A5.515,5.515,0,0,0,1109.32,632.278Zm0,8.881a3.355,3.355,0,1,1,3.2-3.351A3.241,3.241,0,0,1,1109.32,641.159Zm-14.75-7.186v2.35h5.75a4.832,4.832,0,0,1-1.31,2.951,5.971,5.971,0,0,1-4.44,1.714,6.24,6.24,0,1,1,4.33-10.8l1.7-1.656a8.5,8.5,0,0,0-6.03-2.368,8.595,8.595,0,1,0,0,17.176,8.149,8.149,0,0,0,6.14-2.411,7.624,7.624,0,0,0,2.08-5.484,7.957,7.957,0,0,0-.13-1.468Zm60.33,1.822a5.238,5.238,0,0,0-4.85-3.517,5.317,5.317,0,0,0-5.34,5.53,5.475,5.475,0,0,0,5.62,5.528,5.65,5.65,0,0,0,4.72-2.45l-1.93-1.256a3.26,3.26,0,0,1-2.79,1.529,2.9,2.9,0,0,1-2.75-1.675l7.58-3.06-.26-.629Zm-7.72,1.841a3.059,3.059,0,0,1,2.95-3.224,2.213,2.213,0,0,1,2.11,1.173l-5.06,2.051ZM1141.02,643h2.49V626.75h-2.49Zm-4.08-9.49h-.08a3.976,3.976,0,0,0-2.98-1.232,5.53,5.53,0,0,0,0,11.058,3.915,3.915,0,0,0,2.98-1.256h.08v.793c0,2.114-1.16,3.25-3.02,3.25a3.148,3.148,0,0,1-2.86-1.974l-2.16.882a5.4,5.4,0,0,0,5.02,3.27c2.92,0,5.38-1.677,5.38-5.758v-9.928h-2.36v.9Zm-2.85,7.649a3.358,3.358,0,0,1,0-6.7,3.369,3.369,0,0,1,0,6.7Zm32.47-14.409h-5.96V643h2.48v-6.157h3.48a5.062,5.062,0,1,0,0-10.093Zm.06,7.833h-3.54V629.01h3.54a2.789,2.789,0,1,1,0,5.573Zm15.35-2.336a4.689,4.689,0,0,0-4.43,2.488l2.21.9a2.707,2.707,0,0,1,4.88.9v.17a5.558,5.558,0,0,0-2.59-.629c-2.38,0-4.8,1.276-4.8,3.657,0,2.177,1.95,3.579,4.13,3.579a3.553,3.553,0,0,0,3.18-1.592h.08v1.256h2.4v-6.233C1187.03,633.859,1184.82,632.247,1181.97,632.247Zm-.3,8.9c-.81,0-1.94-.393-1.94-1.376,0-1.258,1.41-1.74,2.63-1.74a4.532,4.532,0,0,1,2.27.546,2.986,2.986,0,0,1-2.96,2.57Zm14.1-8.549-2.86,7.045h-.08l-2.95-7.045h-2.68l4.43,9.845-2.53,5.477h2.6l6.83-15.322ZM1173.38,643h2.49V626.75h-2.49Z" transform="translate(-13062 -17210)" fill="#fff"/>
    <path id="Path_46" data-name="Path 46" d="M1044.89,613.8a2.556,2.556,0,0,0-.61,1.829v28.749a2.553,2.553,0,0,0,.61,1.828l.1.088,16.5-16.1v-.38l-16.5-16.1Z" transform="translate(-13062 -17210)" fill="#fff"/>
    <path id="Path_47" data-name="Path 47" d="M1066.99,635.561l-5.5-5.371v-.38l5.5-5.371.13.07,6.51,3.619c1.86,1.027,1.86,2.717,0,3.75l-6.51,3.613-.13.07Z" transform="translate(-13062 -17210)" fill="#fff"/>
    <path id="Path_48" data-name="Path 48" d="M1067.12,635.491,1061.49,630l-16.6,16.206a2.21,2.21,0,0,0,2.77.076l19.46-10.791" transform="translate(-13062 -17210)" fill="#fff"/>
    <path id="Path_49" data-name="Path 49" d="M1067.12,624.509l-19.46-10.791a2.219,2.219,0,0,0-2.77.082l16.6,16.2Z" transform="translate(-13062 -17210)" fill="#fff"/>
  </g>
</svg>
