<svg xmlns="http://www.w3.org/2000/svg" width="180" height="52" viewBox="0 0 180 52">
  <g id="Group_603" data-name="Group 603" transform="translate(12031 16526)">
    <g id="Group_600" data-name="Group 600">
      <g id="Group_599" data-name="Group 599" transform="translate(-12031 -16526)">
        <path id="Path_511" data-name="Path 511" d="M1198.3,684H1043.71c-.49,0-.98,0-1.46,0-.41,0-.82.01-1.23.015a18.4,18.4,0,0,0-2.67.227,9.113,9.113,0,0,0-2.53.805,8.452,8.452,0,0,0-2.16,1.512,8.328,8.328,0,0,0-1.57,2.081,8.483,8.483,0,0,0-.83,2.442,15.8,15.8,0,0,0-.24,2.568c-.01.395-.01.789-.02,1.182v30.331c.01.4.01.784.02,1.183a15.824,15.824,0,0,0,.24,2.568,8.488,8.488,0,0,0,.83,2.443,8.433,8.433,0,0,0,3.73,3.584,9.188,9.188,0,0,0,2.53.81,18.775,18.775,0,0,0,2.67.227c.42.009.82.013,1.23.013.48,0,.97,0,1.46,0H1198.3c.48,0,.97,0,1.45,0,.4,0,.82,0,1.22-.013a18.247,18.247,0,0,0,2.67-.227,9.321,9.321,0,0,0,2.54-.81,8.434,8.434,0,0,0,3.73-3.584,8.5,8.5,0,0,0,.83-2.443,15.814,15.814,0,0,0,.24-2.568c.01-.4.01-.785.01-1.183.01-.466.01-.93.01-1.4V696.237c0-.47,0-.936-.01-1.4,0-.394,0-.788-.01-1.182a15.814,15.814,0,0,0-.24-2.568,8.245,8.245,0,0,0-4.56-6.035,9.28,9.28,0,0,0-2.54-.805,18,18,0,0,0-2.67-.227c-.4-.006-.82-.013-1.22-.015C1199.27,684,1198.78,684,1198.3,684Z" transform="translate(-1031 -684)"/>
        <path id="Path_512" data-name="Path 512" d="M1042.25,734.834q-.6,0-1.2-.013a17.431,17.431,0,0,1-2.49-.21,7.981,7.981,0,0,1-2.21-.7,7.1,7.1,0,0,1-1.86-1.3,6.494,6.494,0,0,1-1.36-1.789,7.03,7.03,0,0,1-.73-2.123,16.114,16.114,0,0,1-.22-2.4c-.01-.27-.02-1.169-.02-1.169V694.863s.01-.885.02-1.146a16.074,16.074,0,0,1,.22-2.4,7.064,7.064,0,0,1,.73-2.129,6.709,6.709,0,0,1,1.35-1.79,7.478,7.478,0,0,1,1.87-1.31,7.982,7.982,0,0,1,2.2-.7,17.561,17.561,0,0,1,2.5-.211l1.2-.015h157.49l1.22.016a17.144,17.144,0,0,1,2.47.208,8.083,8.083,0,0,1,2.23.7,7.334,7.334,0,0,1,3.22,3.1,7.527,7.527,0,0,1,.71,2.112,15.094,15.094,0,0,1,.23,2.418c.01.363.01.754.01,1.14.01.481.01.937.01,1.4V723.74c0,.465,0,.92-.01,1.378,0,.416,0,.8-.01,1.191a14.555,14.555,0,0,1-.23,2.374,6.833,6.833,0,0,1-.72,2.139,6.906,6.906,0,0,1-1.35,1.776,7.137,7.137,0,0,1-1.86,1.31,8.021,8.021,0,0,1-2.23.7,17.164,17.164,0,0,1-2.49.21c-.39.009-.8.013-1.19.013l-1.45,0Z" transform="translate(-1031 -684)"/>
        <path id="Path_513" data-name="Path 513" d="M1097.76,720.5h-6.25l-1.53,4.179h-2.74l6.11-15.606h2.6l6.26,15.606h-2.89Zm-5.46-2.121h4.66l-1.67-4.47c-.23-.618-.45-1.3-.68-2.046-.2.661-.42,1.335-.65,2.025Z" transform="translate(-1031 -685.307)" fill="#fff"/>
        <path id="Path_514" data-name="Path 514" d="M1103.45,715.9q0-1.293-.09-2.843h2.5a12.194,12.194,0,0,1,.19,1.476,4.725,4.725,0,0,1,3.56-1.692,4.024,4.024,0,0,1,3.75,2.439,7.359,7.359,0,0,1,.61,3.215,8.015,8.015,0,0,1-.7,3.479,4.953,4.953,0,0,1-1.94,2.186,5.571,5.571,0,0,1-2.89.744,7.1,7.1,0,0,1-2.33-.4v4.8l-2.66.227Zm6.99,5.94a5.314,5.314,0,0,0,.81-3.193,4.682,4.682,0,0,0-.67-2.828,2.156,2.156,0,0,0-1.79-.877,2.867,2.867,0,0,0-1.43.366,5.112,5.112,0,0,0-1.25.98v6.225a3.9,3.9,0,0,0,.92.307,5.135,5.135,0,0,0,1.05.113,2.759,2.759,0,0,0,2.36-1.094Z" transform="translate(-1031 -685.547)" fill="#fff"/>
        <path id="Path_515" data-name="Path 515" d="M1115.67,715.9c0-.862-.03-1.809-.08-2.843h2.49a12.189,12.189,0,0,1,.2,1.476,4.7,4.7,0,0,1,3.55-1.692,4.02,4.02,0,0,1,2.25.647,3.98,3.98,0,0,1,1.5,1.793,7.356,7.356,0,0,1,.61,3.215,7.857,7.857,0,0,1-.69,3.478,4.972,4.972,0,0,1-1.95,2.187,5.5,5.5,0,0,1-2.88.743,7.093,7.093,0,0,1-2.34-.4v4.8l-2.66.226Zm7,5.94a5.315,5.315,0,0,0,.81-3.193,4.755,4.755,0,0,0-.67-2.828,2.2,2.2,0,0,0-.79-.659,2.153,2.153,0,0,0-1.01-.218,2.894,2.894,0,0,0-1.43.366,5.519,5.519,0,0,0-1.25.98v6.225a4.137,4.137,0,0,0,.93.307,4.966,4.966,0,0,0,1.04.113,2.778,2.778,0,0,0,2.37-1.094Z" transform="translate(-1031 -685.547)" fill="#fff"/>
        <path id="Path_516" data-name="Path 516" d="M1131.21,723.937a6.449,6.449,0,0,1-2.65-2.73,8.947,8.947,0,0,1-.92-4.2,8.759,8.759,0,0,1,1.06-4.464,6.867,6.867,0,0,1,2.91-2.756,9.032,9.032,0,0,1,4.11-.921,10.865,10.865,0,0,1,2.57.3,11.156,11.156,0,0,1,2.28.813l-.68,2.046a9.386,9.386,0,0,0-4.05-1.012,5.7,5.7,0,0,0-2.85.7,4.785,4.785,0,0,0-1.9,2.041,7.294,7.294,0,0,0-.68,3.252,7.891,7.891,0,0,0,.53,2.962,4.314,4.314,0,0,0,1.65,2.046,4.967,4.967,0,0,0,2.83.754,9.335,9.335,0,0,0,1.55-.129,8.249,8.249,0,0,0,1.46-.377V719.1h-3.61v-2.067h6.19v6.57a14.028,14.028,0,0,1-2.8.958,13.22,13.22,0,0,1-2.93.334A8.29,8.29,0,0,1,1131.21,723.937Z" transform="translate(-1031 -685.309)" fill="#fff"/>
        <path id="Path_517" data-name="Path 517" d="M1150.6,724.675a9.96,9.96,0,0,1-.18-1.54,5.191,5.191,0,0,1-1.6,1.244,4.788,4.788,0,0,1-2.23.511,4.171,4.171,0,0,1-1.82-.392,3.02,3.02,0,0,1-1.31-1.186,3.639,3.639,0,0,1-.49-1.933,3.208,3.208,0,0,1,.3-1.492,3.27,3.27,0,0,1,.92-1.206,6.418,6.418,0,0,1,4.06-1.007,14.719,14.719,0,0,1,2.11.151V717.6a2.966,2.966,0,0,0-.65-2.17,2.635,2.635,0,0,0-1.89-.631,7.477,7.477,0,0,0-1.82.248,9.844,9.844,0,0,0-1.7.593l-.42-1.939a10.089,10.089,0,0,1,1.87-.592,10.89,10.89,0,0,1,2.46-.27,6.4,6.4,0,0,1,2.56.458,3.356,3.356,0,0,1,1.65,1.572,6.366,6.366,0,0,1,.59,3v4.62q0,.722.09,2.187Zm-1.6-2.154a4.17,4.17,0,0,0,1.36-.991v-2.154a16.989,16.989,0,0,0-1.78-.118,3.591,3.591,0,0,0-2.27.533,1.719,1.719,0,0,0-.63,1.438,1.654,1.654,0,0,0,.45,1.276,1.8,1.8,0,0,0,1.25.415A3.712,3.712,0,0,0,1149,722.521Z" transform="translate(-1031 -685.375)" fill="#fff"/>
        <path id="Path_518" data-name="Path 518" d="M1155.34,721.886V708.154l2.65-.215v13.473a1.668,1.668,0,0,0,.25,1.05.993.993,0,0,0,.8.307,2.878,2.878,0,0,0,.7-.118l.32,1.906a4.549,4.549,0,0,1-.93.242,6.079,6.079,0,0,1-1.02.092C1156.26,724.891,1155.34,723.889,1155.34,721.886Z" transform="translate(-1031 -685.293)" fill="#fff"/>
        <path id="Path_519" data-name="Path 519" d="M1161.96,721.886V708.154l2.65-.215v13.473a1.736,1.736,0,0,0,.25,1.05,1.052,1.052,0,0,0,.37.246,1,1,0,0,0,.44.061,3.05,3.05,0,0,0,.7-.118l.31,1.906a4.631,4.631,0,0,1-.92.242,6.3,6.3,0,0,1-1.03.092C1162.88,724.891,1161.96,723.889,1161.96,721.886Z" transform="translate(-1031 -685.293)" fill="#fff"/>
        <path id="Path_520" data-name="Path 520" d="M1177.71,719.2h-7.61q.2,3.651,3.48,3.651a7.39,7.39,0,0,0,1.68-.2,9.978,9.978,0,0,0,1.64-.534l.58,1.821a9.894,9.894,0,0,1-4.38.947,6.415,6.415,0,0,1-3.13-.7,4.521,4.521,0,0,1-1.91-2.014,7.192,7.192,0,0,1-.64-3.166,7.44,7.44,0,0,1,.68-3.317,4.978,4.978,0,0,1,1.89-2.122,5.3,5.3,0,0,1,2.8-.732,4.709,4.709,0,0,1,2.75.77,4.576,4.576,0,0,1,1.63,2.052,7.239,7.239,0,0,1,.54,2.832Zm-2.6-1.691a3.291,3.291,0,0,0-.7-2.084,2.126,2.126,0,0,0-.76-.533,2.075,2.075,0,0,0-.91-.161,2.23,2.23,0,0,0-.91.17,2.2,2.2,0,0,0-.77.529,3.731,3.731,0,0,0-.88,2.079Z" transform="translate(-1031 -685.375)" fill="#fff"/>
        <path id="Path_521" data-name="Path 521" d="M1179.85,715.973c0-.639-.03-1.612-.08-2.919h2.48c.05.324.09.71.13,1.158s.06.813.08,1.093a9.707,9.707,0,0,1,.91-1.286,3.738,3.738,0,0,1,1.04-.851,2.784,2.784,0,0,1,1.36-.329,3.791,3.791,0,0,1,1.06.129l-.33,2.3a2.937,2.937,0,0,0-.87-.118,2.8,2.8,0,0,0-1.63.479,6.7,6.7,0,0,0-1.5,1.578v7.463h-2.65Z" transform="translate(-1031 -685.367)" fill="#fff"/>
        <path id="Path_522" data-name="Path 522" d="M1188.43,729.43a6.222,6.222,0,0,1-.96-.232l.48-1.938c.18.05.41.1.68.145a4.673,4.673,0,0,0,.78.07c1.17,0,2.06-.757,2.65-2.272l.17-.431-4.29-11.718h2.85l2.16,6.548a20.839,20.839,0,0,1,.68,2.574c.2-.84.44-1.68.71-2.52l2.18-6.6h2.69l-4.28,11.771a12.218,12.218,0,0,1-1.3,2.694,4.607,4.607,0,0,1-1.66,1.518,4.919,4.919,0,0,1-2.3.5A7.209,7.209,0,0,1,1188.43,729.43Z" transform="translate(-1031 -685.549)" fill="#fff"/>
        <path id="Path_523" data-name="Path 523" d="M1087.22,693.889h4.8l-.13,1.159h-3.26v2.243h3.07v1.086h-3.07v2.486h3.43l-.12,1.17h-4.72Z" transform="translate(-1031 -684.432)" fill="#fff"/>
        <path id="Path_524" data-name="Path 524" d="M1095.33,697.877l-2.53-3.988h1.59l1.72,2.93,1.8-2.93h1.56l-2.51,3.937,2.71,4.207h-1.61l-1.95-3.206-1.97,3.206h-1.55Z" transform="translate(-1031 -684.432)" fill="#fff"/>
        <path id="Path_525" data-name="Path 525" d="M1100.71,693.889h2.19a3.845,3.845,0,0,1,2.37.63,2.15,2.15,0,0,1,.82,1.822,2.611,2.611,0,0,1-.37,1.415,2.419,2.419,0,0,1-1.02.928,3.423,3.423,0,0,1-1.52.323,5.872,5.872,0,0,1-1.06-.113v3.139h-1.41Zm3.53,3.636a1.549,1.549,0,0,0,.35-.525,1.482,1.482,0,0,0,.1-.625,1.263,1.263,0,0,0-.46-1.085,2.3,2.3,0,0,0-1.35-.332h-.76v2.89a5.416,5.416,0,0,0,.81.085A1.894,1.894,0,0,0,1104.24,697.525Z" transform="translate(-1031 -684.432)" fill="#fff"/>
        <path id="Path_526" data-name="Path 526" d="M1107.48,693.889h1.41v6.94h3.37l-.12,1.2h-4.66Z" transform="translate(-1031 -684.432)" fill="#fff"/>
        <path id="Path_527" data-name="Path 527" d="M1114.39,701.634a3.358,3.358,0,0,1-1.36-1.438,4.707,4.707,0,0,1-.48-2.15,4.885,4.885,0,0,1,.51-2.253,3.525,3.525,0,0,1,1.45-1.49,4.548,4.548,0,0,1,2.23-.526,4.2,4.2,0,0,1,2.12.508,3.353,3.353,0,0,1,1.36,1.431,4.788,4.788,0,0,1,.47,2.138,4.989,4.989,0,0,1-.51,2.278,3.6,3.6,0,0,1-1.45,1.49,4.5,4.5,0,0,1-2.22.523A4.193,4.193,0,0,1,1114.39,701.634Zm3.65-1a2.437,2.437,0,0,0,.88-1.091,4.1,4.1,0,0,0,.29-1.588,4.383,4.383,0,0,0-.26-1.564,2.25,2.25,0,0,0-.82-1.094,2.787,2.787,0,0,0-2.91.006,2.553,2.553,0,0,0-.9,1.108,4.018,4.018,0,0,0-.3,1.532,4.266,4.266,0,0,0,.28,1.581,2.321,2.321,0,0,0,2.3,1.507A2.522,2.522,0,0,0,1118.04,700.635Z" transform="translate(-1031 -684.428)" fill="#fff"/>
        <path id="Path_528" data-name="Path 528" d="M1122.26,693.889h2.54a3.43,3.43,0,0,1,2.12.557,2.044,2.044,0,0,1,.55.709,1.907,1.907,0,0,1,.16.883,2.464,2.464,0,0,1-.9,1.94,2.711,2.711,0,0,1-.79.461l2.51,3.594h-1.63l-2.12-3.229h-1.04v3.229h-1.4Zm2.2,3.852a2.023,2.023,0,0,0,.91-.2,1.52,1.52,0,0,0,.61-.562,1.558,1.558,0,0,0,.22-.841,1.2,1.2,0,0,0-.08-.5,1.112,1.112,0,0,0-.31-.4,1.9,1.9,0,0,0-1.13-.283h-1.02v2.783Z" transform="translate(-1031 -684.432)" fill="#fff"/>
        <path id="Path_529" data-name="Path 529" d="M1129.56,693.889h4.8l-.14,1.159h-3.25v2.243h3.07v1.086h-3.07v2.486h3.43l-.12,1.17h-4.72Z" transform="translate(-1031 -684.432)" fill="#fff"/>
        <path id="Path_530" data-name="Path 530" d="M1139.58,693.889h1.4v8.144h-1.4Z" transform="translate(-1031 -684.432)" fill="#fff"/>
        <path id="Path_531" data-name="Path 531" d="M1144.7,695.064h-2.52l.12-1.175h6.34l-.13,1.175h-2.4v6.969h-1.41Z" transform="translate(-1031 -684.432)" fill="#fff"/>
        <path id="Path_532" data-name="Path 532" d="M1154.74,701.634a3.442,3.442,0,0,1-1.37-1.438,4.7,4.7,0,0,1-.47-2.15,4.878,4.878,0,0,1,.5-2.253,3.549,3.549,0,0,1,1.46-1.49,4.5,4.5,0,0,1,2.23-.526,4.2,4.2,0,0,1,2.12.508,3.331,3.331,0,0,1,1.35,1.431,4.535,4.535,0,0,1,.47,2.138,4.746,4.746,0,0,1-.51,2.278,3.538,3.538,0,0,1-1.45,1.49,4.465,4.465,0,0,1-2.21.523A4.2,4.2,0,0,1,1154.74,701.634Zm3.64-1a2.4,2.4,0,0,0,.89-1.09,4.115,4.115,0,0,0,.29-1.589,4.389,4.389,0,0,0-.26-1.564,2.333,2.333,0,0,0-.83-1.094,2.433,2.433,0,0,0-1.46-.407,2.491,2.491,0,0,0-1.45.413,2.463,2.463,0,0,0-.89,1.108,3.671,3.671,0,0,0-.3,1.532,4.072,4.072,0,0,0,.28,1.581,2.394,2.394,0,0,0,.86,1.1,2.437,2.437,0,0,0,1.43.4A2.5,2.5,0,0,0,1158.38,700.635Z" transform="translate(-1031 -684.428)" fill="#fff"/>
        <path id="Path_533" data-name="Path 533" d="M1162.6,693.889h1.62l4.02,6.31c-.03-.6-.05-1.152-.05-1.659v-4.651h1.31v8.144h-1.57l-4.08-6.413q.06,1.092.06,1.935v4.478h-1.31Z" transform="translate(-1031 -684.432)" fill="#fff"/>
        <path id="Path_534" data-name="Path 534" d="M1052.46,693.824c-7.08,0-9.67,2.437-9.67,9.1v14.147c0,6.665,2.59,9.1,9.67,9.1h15.02c7.07,0,9.67-2.437,9.67-9.1V702.926c0-6.665-2.59-9.1-9.67-9.1Z" transform="translate(-1031 -684)" fill="#c8102e"/>
        <path id="Path_535" data-name="Path 535" d="M1049.6,711h.91v4.492h-.91v-1.824h-2.06v1.824h-.91V711h.91v1.812h2.06Zm5.13,2.571c0,.73-.36,1.12-1.02,1.12s-1.03-.4-1.03-1.151v-2.537h-.91v2.568a1.782,1.782,0,0,0,1.93,1.988,1.807,1.807,0,0,0,1.94-2.025V711h-.91Zm10.53.518L1064.24,711h-.74l-1.02,3.089-.99-3.087h-.97l1.56,4.489h.75l1.03-2.948,1.02,2.948h.76l1.56-4.489h-.94Zm3.57-.53h1.66v-.817h-1.66v-.92h2.41v-.818h-3.31v4.485h3.4v-.818h-2.5Zm3.58,1.927h.9V711h-.9Zm-14.97-.932-.41.935h-.93l1.98-4.488h.81l1.97,4.488h-.96l-.4-.935Zm.34-.81h1.38l-.69-1.607Z" transform="translate(-1031 -685.092)" fill="#fff"/>
        <path id="Path_536" data-name="Path 536" d="M1059.97,705.285a5.731,5.731,0,0,1-5.72-5.719h.81a4.91,4.91,0,0,0,9.82,0h.81a5.731,5.731,0,0,1-5.72,5.719Z" transform="translate(-1031 -684.645)"/>
      </g>
    </g>
  </g>
</svg>
