<svg xmlns="http://www.w3.org/2000/svg" width="27.999" height="35.738" viewBox="0 0 27.999 35.738">
  <g id="Group_596" data-name="Group 596" transform="translate(5634.999 11981)">
    <path id="Path_1529" data-name="Path 1529" d="M8389.48,313.083a.52.52,0,0,0,.52-.524V299.995a2.822,2.822,0,0,0-.69-1.8l-3.88-4.7a3.054,3.054,0,0,0-.689-.619,4,4,0,0,0,.02-.485v-5.863a.52.52,0,1,0-1.04,0v5.938a2.557,2.557,0,0,0-.46-.04h-6.77a2.7,2.7,0,0,0-1.36.379c-.02.007-.03.014-.05.023l-5.11,2.485a2.775,2.775,0,0,0-1.27,1.34.019.019,0,0,1-.01.019l-2.11,5.352a.531.531,0,0,0,.3.679.514.514,0,0,0,.19.036.523.523,0,0,0,.489-.331l2.1-5.342a1.7,1.7,0,0,1,.78-.814l2.689-1.313-2.689,3.26a2.8,2.8,0,0,0-.61,1.8v18.079a4.129,4.129,0,0,0,.05.617l-5.39-2.39a2.43,2.43,0,0,1-1.24-3.2.015.015,0,0,0,.01-.016l3.41-8.48a.523.523,0,1,0-.97-.391l-3.41,8.472a3.485,3.485,0,0,0,1.77,4.569l6.33,2.8s.011.006.021.009a3.571,3.571,0,0,0,3.01,1.668h12.92a3.714,3.714,0,0,0,3.66-3.664V315a.52.52,0,0,0-.52-.523.528.528,0,0,0-.53.523v3.072a2.652,2.652,0,0,1-2.61,2.617h-12.92a2.591,2.591,0,0,1-2.55-2.617V299.995a1.728,1.728,0,0,1,.38-1.133l3.88-4.7a1.791,1.791,0,0,1,1.36-.689h6.77a1.6,1.6,0,0,1,.3.029,3.943,3.943,0,0,1-2.239,2.517,1.639,1.639,0,1,0,.22,1.04,4.974,4.974,0,0,0,2.95-3.043,1.2,1.2,0,0,1,.13.146l3.89,4.7a1.851,1.851,0,0,1,.44,1.133v12.564a.529.529,0,0,0,.53.524Zm-9.57-15.636a.593.593,0,1,1,.6-.593A.6.6,0,0,1,8379.91,297.447Z" transform="translate(-13997 -12267)" fill="red"/>
    <path id="Path_1530" data-name="Path 1530" d="M8375.38,313.851a.541.541,0,0,0,.37-.154l8.93-8.934a.515.515,0,0,0,0-.741.523.523,0,0,0-.739,0l-8.931,8.935a.525.525,0,0,0,.37.894Z" transform="translate(-13997 -12267)" fill="red"/>
    <path id="Path_1531" data-name="Path 1531" d="M8376.49,308.336a2.268,2.268,0,1,0,0-4.537h-.07a2.269,2.269,0,0,0,0,4.537Zm-1.29-2.268a1.224,1.224,0,0,1,1.22-1.222h.07a1.222,1.222,0,1,1,0,2.443h-.07A1.224,1.224,0,0,1,8375.2,306.068Z" transform="translate(-13997 -12267)" fill="red"/>
    <path id="Path_1532" data-name="Path 1532" d="M8383.26,313.851h.07a2.269,2.269,0,1,0,0-4.537h-.07a2.269,2.269,0,0,0,0,4.537Zm0-3.49h.07a1.221,1.221,0,0,1,0,2.443h-.07a1.221,1.221,0,0,1,0-2.443Z" transform="translate(-13997 -12267)" fill="red"/>
  </g>
</svg>
