<svg xmlns="http://www.w3.org/2000/svg" width="46.252" height="46.265" viewBox="0 0 46.252 46.265">
  <path id="Path_5344" data-name="Path 5344" d="M7362.58,39.215l-12.16,12.16a1.173,1.173,0,0,0,0,1.676l4.09,4.085a1.162,1.162,0,0,0,1.67,0l12.16-12.16a1.156,1.156,0,0,0,0-1.676l-4.08-4.085a1.215,1.215,0,0,0-1.68,0Zm9.21,9.232-21.37,21.368a1.173,1.173,0,0,0,0,1.676l4.09,4.085a1.162,1.162,0,0,0,1.67,0l21.37-21.368a1.156,1.156,0,0,0,0-1.676l-4.08-4.085A1.173,1.173,0,0,0,7371.79,48.447Zm9.23,9.213-21.36,21.368a1.156,1.156,0,0,0,0,1.676l4.08,4.085a1.173,1.173,0,0,0,1.68,0l21.36-21.368a1.156,1.156,0,0,0,0-1.676l-4.08-4.085a1.173,1.173,0,0,0-1.68,0Zm-35.69,8.684-4.09-4.085a1.172,1.172,0,0,1,0-1.676l4.09-4.085a1.161,1.161,0,0,1,1.67,0l4.09,4.085a1.172,1.172,0,0,1,0,1.676L7347,66.344A1.161,1.161,0,0,1,7345.33,66.344Z" transform="translate(-7340.888 -38.878)" fill="#fff"/>
</svg>
