<svg xmlns="http://www.w3.org/2000/svg" width="68" height="68" viewBox="0 0 68 68">
  <g id="Group_596" data-name="Group 596" transform="translate(12113 17159)">
    <rect id="Rectangle_2" data-name="Rectangle 2" width="68" height="68" rx="34" transform="translate(-12113 -17159)" fill="#0083be"/>
    <path id="Path_1" data-name="Path 1" d="M1205.58,37.215l-12.16,12.16a1.173,1.173,0,0,0,0,1.676l4.09,4.085a1.161,1.161,0,0,0,1.67,0l12.16-12.16a1.156,1.156,0,0,0,0-1.676l-4.08-4.085a1.216,1.216,0,0,0-1.68,0Zm9.21,9.232-21.37,21.368a1.173,1.173,0,0,0,0,1.676l4.09,4.085a1.161,1.161,0,0,0,1.67,0l21.37-21.368a1.156,1.156,0,0,0,0-1.676l-4.08-4.085A1.173,1.173,0,0,0,1214.79,46.447Zm9.23,9.213-21.36,21.368a1.156,1.156,0,0,0,0,1.676l4.08,4.085a1.173,1.173,0,0,0,1.68,0l21.36-21.368a1.156,1.156,0,0,0,0-1.676l-4.08-4.085a1.173,1.173,0,0,0-1.68,0Zm-35.69,8.684-4.09-4.085a1.173,1.173,0,0,1,0-1.676l4.09-4.085a1.161,1.161,0,0,1,1.67,0l4.09,4.085a1.173,1.173,0,0,1,0,1.676L1190,64.344A1.161,1.161,0,0,1,1188.33,64.344Z" transform="translate(-13286 -17185)" fill="#fff"/>
  </g>
</svg>
