<svg xmlns="http://www.w3.org/2000/svg" xmlns:xlink="http://www.w3.org/1999/xlink" width="40" height="40" viewBox="0 0 40 40">
  <defs>
    <clipPath id="clip-path">
      <rect id="Rectangle_1362" data-name="Rectangle 1362" width="40" height="40" transform="translate(7390 621)" fill="#fff"/>
    </clipPath>
  </defs>
  <g id="Group_448" data-name="Group 448" transform="translate(-7390 -621)" clip-path="url(#clip-path)">
    <path id="Path_4717" data-name="Path 4717" d="M7429.22,621.786v16.877l-1.51,1.512a13.736,13.736,0,0,1-3.93,8.247l-1.37,1.366-5.51-3.033-8.31-10.783-4.94,4.946a2.741,2.741,0,0,1-3.26.462c-.01,0-.01,0-.01,0a2.863,2.863,0,0,1-.61-.46,2.748,2.748,0,0,1,0-3.876l6.26-6.255a10.267,10.267,0,0,1,12.24-1.726l1.79.986,8.26-8.261Z" fill="#ffd0a6"/>
    <path id="Path_4718" data-name="Path 4718" d="M7416.14,642.3c-2.89,0-5.47-2.633-5.6-2.766a.588.588,0,0,1,.85-.813c.03.033,3.23,3.3,6,2.166a.58.58,0,0,1,.76.32.587.587,0,0,1-.32.764A4.4,4.4,0,0,1,7416.14,642.3Z" fill="#e8b185"/>
    <path id="Path_4719" data-name="Path 4719" d="M7397.97,650.1a4.887,4.887,0,0,1,3.1,6.186,2.186,2.186,0,0,1,3.09,3.093,2.183,2.183,0,0,0,3.09,0l7.54-7.541-8.97-8.974" fill="#e8b185"/>
    <path id="Path_4720" data-name="Path 4720" d="M7422.7,653.168a2.2,2.2,0,0,1-3.1,0l.7.693a2.189,2.189,0,0,1-3.1,3.093l-1.64-1.646a2.183,2.183,0,0,1,.63,1.536,2.19,2.19,0,0,1-3.74,1.546l-2.1-2.1a2.188,2.188,0,0,1-3.1,3.089l-8.84-8.842-2.11-2.111a13.627,13.627,0,0,1-3.93-8.247l-1.43-1.431V621.786h4.23l7.17,7.171a6.328,6.328,0,0,1,5.2.579l1.05,6.436,14.11,14.1A2.2,2.2,0,0,1,7422.7,653.168Z" fill="#c99061"/>
    <path id="Path_4721" data-name="Path 4721" d="M7410.77,658.782a2.26,2.26,0,0,1-.42.593,2.195,2.195,0,0,1-3.1,0l-8.84-8.842-2.11-2.111a13.627,13.627,0,0,1-3.93-8.247l-1.43-1.431v-2.031l2.44,2.447a13.733,13.733,0,0,0,3.93,8.246l2.12,2.112,8.84,8.842a2.19,2.19,0,0,0,2.5.422" fill="#ad7449"/>
    <path id="Path_4722" data-name="Path 4722" d="M7415.97,657.8a2.272,2.272,0,0,1-.42.594,2.2,2.2,0,0,1-3.1,0l-8.16-8.163a1.434,1.434,0,0,1,2.03,0l7.15,7.147a2.186,2.186,0,0,0,2.5.422" fill="#ad7449"/>
    <path id="Path_4723" data-name="Path 4723" d="M7420.72,656.361a2.535,2.535,0,0,1-.42.593,2.194,2.194,0,0,1-3.1,0l-9.17-9.172a1.435,1.435,0,0,1,2.03,0l8.16,8.157a2.191,2.191,0,0,0,2.5.422" fill="#ad7449"/>
    <path id="Path_4724" data-name="Path 4724" d="M7423.12,652.574a2.533,2.533,0,0,1-.42.594,2.2,2.2,0,0,1-3.1,0l-8.98-8.982a1.434,1.434,0,0,1,2.03,0l7.97,7.966a2.154,2.154,0,0,0,1.54.641,2.2,2.2,0,0,0,.96-.219" fill="#ad7449"/>
    <path id="Path_4725" data-name="Path 4725" d="M7429.22,621.786V625.4l-6.91,6.9-2.25-2.258,8.26-8.261Z" fill="#e8b185"/>
    <path id="Path_4726" data-name="Path 4726" d="M7411.9,627.87l-.6,2.181-1.25,4.462-1.46,1.459-4.94,4.946a2.741,2.741,0,0,1-3.26.462c-.01,0-.01,0-.01,0a2.863,2.863,0,0,1-.61-.46,2.748,2.748,0,0,1,0-3.876l6.26-6.255A10.238,10.238,0,0,1,7411.9,627.87Z" fill="#ffd0a6"/>
    <path id="Path_4727" data-name="Path 4727" d="M7420.06,630.047a23.587,23.587,0,0,0-8.76,0,8.9,8.9,0,0,0-4.2,1.815l-6.25,6.254a2.7,2.7,0,0,0-.46,3.261c-.01,0-.01,0-.01,0a2.863,2.863,0,0,1-.61-.46,2.748,2.748,0,0,1,0-3.876l6.26-6.255a10.267,10.267,0,0,1,12.24-1.726Z" fill="#e8b185"/>
    <path id="Path_4728" data-name="Path 4728" d="M7401.33,639.854c2.54-2.539,1.04-3.256,1.04-3.256l-.74-.741-2.06,2.161Z" fill="#e8b185"/>
  </g>
</svg>
