<svg xmlns="http://www.w3.org/2000/svg" width="70" height="44.876" viewBox="0 0 70 44.876">
  <g id="Group_13480" data-name="Group 13480" transform="translate(-934 -525)">
    <path id="Path_94976" data-name="Path 94976" d="M944.12,525.275c-.309.21-2.81,3.151-3.263,3.679-.813.951-1.47,1.866-2.2,2.83-2.673,3.505-5.99,10.324-3.024,14.6,3.838,5.539,12.373,2.607,17.863.285l16.761-7.221c3.738-1.584,7.42-3.151,11.164-4.8,1.873-.824,3.687-1.574,5.564-2.4,3.637-1.594,7.569-3.308,11.2-4.819.494-.2,5.318-2.329,5.631-2.4-.156-.086-.353.006-.561.065-5.837,1.642-11.911,3.142-17.685,4.8l-9.13,2.481-18.249,4.953c-3.922,1.059-10.625,3.474-14.185.68-2.694-2.123-2.737-5.555-1.686-8.694a16.535,16.535,0,0,1,.824-2.1l.983-1.947Z" transform="translate(0.19)" fill="#e50019" fill-rule="evenodd"/>
    <path id="Path_94977" data-name="Path 94977" d="M968.78,554.975c-.044-1.11-.109-3.505.426-4.39a.869.869,0,0,1,1.538-.007,5.838,5.838,0,0,1,.415,2.051c.056,1.195.1,3.407-.427,4.367a.827.827,0,0,1-1.505-.014,5.232,5.232,0,0,1-.446-2.007Zm.55-8.089a4.753,4.753,0,0,0-2.579,1.246c-1.662,1.385-2,4.26-1.9,6.441.164,3.742,1.91,6.682,5.912,6.289,3.847-.378,4.6-4.579,4.458-7.684a10.362,10.362,0,0,0-.42-2.642,6.151,6.151,0,0,0-.955-1.92c-.031-.039-.066-.073-.093-.111a3.525,3.525,0,0,0-.748-.745,4.765,4.765,0,0,0-3.67-.873Z" transform="translate(12.661 8.965)" fill="#1a1818" fill-rule="evenodd"/>
    <path id="Path_94978" data-name="Path 94978" d="M961.86,550.669c.505-.011.7-.028,1,.278.938.948.8,4.2.445,5.307a1.408,1.408,0,0,1-.5.779,1.258,1.258,0,0,1-.975.219l.031-6.582ZM958,560.511c1.353-.024,2.721.006,4.074,0a5.12,5.12,0,0,0,3.1-.949l.805-.738a7.79,7.79,0,0,0,1.519-5.035c.073-4.068-1.717-6.688-5.476-6.688h-4.013L958,560.511Z" transform="translate(9.855 9.075)" fill="#1a1818" fill-rule="evenodd"/>
    <path id="Path_94979" data-name="Path 94979" d="M938.439,555.588c.006,1.532-.041,2.607.955,3.774.071.079.09.124.164.2,1.363,1.409,4.122,1.538,5.877.813a3.378,3.378,0,0,0,1.619-1.416,4.9,4.9,0,0,0,.669-2.3c.059-.937.01-2.02,0-2.972l-.023-6.6h-3.837c.009,2.833.069,6.086.026,8.863-.009.6-.185,1.249-.825,1.247-.667,0-.8-.635-.8-1.247l-.063-8.85H938.38l.059,8.489Z" transform="translate(1.799 9.069)" fill="#1a1818" fill-rule="evenodd"/>
    <path id="Path_94980" data-name="Path 94980" d="M945.115,559.81a5.474,5.474,0,0,0,5.417.567,4.218,4.218,0,0,0,2.288-4.524,4.935,4.935,0,0,0-2.124-3.118l-.931-.763c-1.2-.854-.678-1.775.167-1.835a3.393,3.393,0,0,1,1.925.672,2.691,2.691,0,0,0,.5.322l-.042-3.4c-1.446-.842-3.941-1.207-5.437-.262a4,4,0,0,0-.975,5.8,12.02,12.02,0,0,0,1.715,1.673l.889.806c.44.616.4,1.416-.358,1.612a3.575,3.575,0,0,1-2.789-.879l-.195-.127-.047,3.455Z" transform="translate(4.541 8.997)" fill="#1a1818" fill-rule="evenodd"/>
    <path id="Path_94981" data-name="Path 94981" d="M950.332,550.475l2.226.006.017,10.013h3.813l0-10.016,2.139,0v-3.388l-8.2,0,.01,3.382Z" transform="translate(6.702 9.072)" fill="#1a1818" fill-rule="evenodd"/>
    <path id="Path_94982" data-name="Path 94982" d="M976.794,550.473l2.227.007.013,10.016,3.813,0,0-10.016,2.143,0v-3.388l-8.2,0,.008,3.38Z" transform="translate(17.57 9.072)" fill="#1a1818" fill-rule="evenodd"/>
    <path id="Path_94983" data-name="Path 94983" d="M936.212,553.429a28.411,28.411,0,0,1-.031,3.335.776.776,0,0,1-1.037.631,4.7,4.7,0,0,1-1.137-.5v2.745c0,.49-.073.471.307.647,1.591.736,3.871.624,4.946-.915,1.173-1.679.791-4.568.793-6.765l-.045-5.513h-3.834l.039,6.334Z" transform="translate(0 9.073)" fill="#1a1818" fill-rule="evenodd"/>
    <path id="Path_94984" data-name="Path 94984" d="M973.894,560.49h3.849l.01-13.391h-3.9l.043,13.391Z" transform="translate(16.364 9.075)" fill="#1a1818" fill-rule="evenodd"/>
    <path id="Path_94985" data-name="Path 94985" d="M982.853,554.963a1.3,1.3,0,0,1,.623.164,1.179,1.179,0,0,1,.477.471,1.316,1.316,0,0,1,.169.638,1.286,1.286,0,0,1-.168.632,1.159,1.159,0,0,1-.47.473,1.27,1.27,0,0,1-1.267,0,1.157,1.157,0,0,1-.473-.473,1.265,1.265,0,0,1,0-1.27,1.194,1.194,0,0,1,.475-.471,1.317,1.317,0,0,1,.629-.164Zm0,.212a1.1,1.1,0,0,0-.523.135.991.991,0,0,0-.4.4,1.09,1.09,0,0,0-.141.53,1.076,1.076,0,0,0,.141.528.979.979,0,0,0,.393.393,1.077,1.077,0,0,0,.531.143,1.061,1.061,0,0,0,.526-.143.966.966,0,0,0,.392-.393,1.066,1.066,0,0,0,.144-.528,1.079,1.079,0,0,0-.145-.53.976.976,0,0,0-.4-.4,1.089,1.089,0,0,0-.519-.135Zm-.56,1.765v-1.368h.47a1.267,1.267,0,0,1,.35.037.337.337,0,0,1,.172.133.345.345,0,0,1,.066.2.367.367,0,0,1-.11.261.42.42,0,0,1-.283.124.345.345,0,0,1,.116.072,1.5,1.5,0,0,1,.2.271l.167.27h-.268l-.121-.216a1.033,1.033,0,0,0-.234-.317.254.254,0,0,0-.175-.048h-.13v.581Zm.222-.769h.266a.438.438,0,0,0,.262-.059.182.182,0,0,0,.071-.152.192.192,0,0,0-.032-.107.207.207,0,0,0-.094-.07.613.613,0,0,0-.221-.025h-.251v.415Z" transform="translate(19.537 12.304)" fill="#1a1818"/>
  </g>
</svg>
