<svg xmlns="http://www.w3.org/2000/svg" width="70" height="46.346" viewBox="0 0 70 46.346">
  <g id="Group_13481" data-name="Group 13481" transform="translate(-189.544 -349.362)">
    <path id="path2342" d="M194.551,470.41l-.224-.023a5.307,5.307,0,0,1-2.481-.951,5.538,5.538,0,0,1-2.146-3.193,5.739,5.739,0,0,1-.094-2.167,5.518,5.518,0,0,1,3.285-4.258,5.308,5.308,0,0,1,1.374-.367,6.826,6.826,0,0,1,1.252,0,5.237,5.237,0,0,1,1.638.487,4.92,4.92,0,0,1,1.461,1.052,5.258,5.258,0,0,1,.987,1.332l.064.119-.228.169c-.314.232-1.052.759-1.292.922l-.2.135-.082-.177a3.337,3.337,0,0,0-.289-.523,3.192,3.192,0,0,0-2.014-1.347,3.284,3.284,0,0,0-2.666.645,4.342,4.342,0,0,0-.54.536,3.406,3.406,0,0,0-.663,2.874,3.69,3.69,0,0,0,.483,1.133,3.292,3.292,0,0,0,2.343,1.463,4.484,4.484,0,0,0,.743,0,3.283,3.283,0,0,0,2.156-1.213,3.41,3.41,0,0,0,.391-.61,1.462,1.462,0,0,1,.11-.194c.005,0,.394.274.863.61l.853.609-.086.164a5.462,5.462,0,0,1-.776,1.072,5.193,5.193,0,0,1-1.588,1.179,5.315,5.315,0,0,1-1.708.5C195.343,470.4,194.647,470.421,194.551,470.41Zm7.3-5.548v-5.34h2.071v3.833h5.41v-3.833H211.4V470.2h-2.071v-4.7h-5.41v4.7h-2.071v-5.34Zm11.644,4.393,2.367-5.34,1.947-4.393h2.906l2.354,5.274,2.383,5.34.03.066H223l-.479-1.059-.479-1.058-2.771,0-2.771,0-.473,1.055-.473,1.055h-2.479Zm7.673-3.325c-.009-.038-1.89-4.243-1.9-4.243s-1.793,4.17-1.821,4.25c0,.009.712.014,1.86.014A18.507,18.507,0,0,0,221.164,465.93Zm5.984-1.068v-5.34h2.914l2.28,3.2,2.28,3.2,0-3.2,0-3.2h2.087V470.2l-.837,0-.837,0-2.891-4.014c-1.59-2.208-2.9-4.014-2.9-4.015s-.012,1.808-.012,4.018V470.2h-2.087Zm13.339,0v-5.34h7.465v2.148h-5.379V463.8h4.977v2.148h-4.977v2.133h6.152V470.2h-8.238Zm11.159,0v-5.34h2.086v8.563h5.812V470.2h-7.9Z" transform="translate(0 -74.705)"/>
    <path id="path2387" d="M243.059,382.1a16.754,16.754,0,0,1-6.713-1.83,15.812,15.812,0,0,1-4.03-2.986,15.342,15.342,0,0,1-2.36-2.951l-.273-.451.387-.205c.755-.4,4.2-2.163,4.225-2.163a3.346,3.346,0,0,1,.316.43,11.3,11.3,0,0,0,7.884,4.887,16.391,16.391,0,0,0,2.926-.023,13.619,13.619,0,0,0,2.06-.468c.035-.011-.031-.119-.183-.3a16.155,16.155,0,0,1-3.068-14.908A16.265,16.265,0,0,1,247.1,355.6a4.364,4.364,0,0,0,.346-.464,7.367,7.367,0,0,0-1.651-.44,13.027,13.027,0,0,0-3.5-.047,11.778,11.778,0,0,0-4.312,1.591,11.371,11.371,0,0,0-3.393,3.31l-.4.595-.508-.267c-.279-.146-1.316-.684-2.3-1.194s-1.8-.931-1.8-.934.6-1,.858-1.365a18.631,18.631,0,0,1,3.161-3.39,16.35,16.35,0,0,1,8.923-3.588,22.828,22.828,0,0,1,2.738,0,15.682,15.682,0,0,1,5.782,1.635l.892.445.3-.17a17.108,17.108,0,0,1,1.992-.92,16.454,16.454,0,0,1,9.592-.573A16.02,16.02,0,0,1,271.329,354a16.207,16.207,0,0,1,2.8,3.558l.111.193-1.806.932c-.994.513-2.033,1.051-2.309,1.2l-.5.264-.38-.574a11.253,11.253,0,0,0-8.305-4.986,12.721,12.721,0,0,0-3.369.195,9.119,9.119,0,0,0-1.212.346,3.371,3.371,0,0,0,.273.361,16.341,16.341,0,0,1,3.516,8.422,22.555,22.555,0,0,1,.022,3.448,16.178,16.178,0,0,1-3.466,8.459c-.434.535-.415.5-.277.552.066.025.374.111.684.189a11.532,11.532,0,0,0,4.87.162,11.206,11.206,0,0,0,7.19-4.722c.156-.23.3-.434.314-.452a5.2,5.2,0,0,1,.861.382c.9.454,3.741,1.921,3.771,1.951a14.022,14.022,0,0,1-1.407,2.089,22.693,22.693,0,0,1-2.557,2.554,16.261,16.261,0,0,1-17.818,1.7l-.411-.224-.509.269A16.261,16.261,0,0,1,243.059,382.1Zm9.416-9.271a11.448,11.448,0,0,0,2.5-6.013,14.669,14.669,0,0,0-.083-2.866,10.782,10.782,0,0,0-2.049-4.8c-.2-.268-.5-.627-.654-.8l-.287-.309-.266.288a13.645,13.645,0,0,0-1.229,1.631,11.063,11.063,0,0,0-1.349,8.211,11.647,11.647,0,0,0,2.548,4.984l.284.326.124-.118C252.082,373.3,252.29,373.06,252.475,372.83Z" transform="translate(-27.171)"/>
  </g>
</svg>
