<svg xmlns="http://www.w3.org/2000/svg" width="180" height="43.125" viewBox="0 0 180 43.125">
  <g id="Group_13487" data-name="Group 13487" transform="translate(-869 -519)">
    <path id="Path_95010" data-name="Path 95010" d="M915.022,551.2V522.714h16.811V526.3H918.509v8.755h11.957v3.587H918.509v8.969h14.306V551.2Z" fill="#dc181b"/>
    <path id="Path_95011" data-name="Path 95011" d="M950.522,551.2l-5.808-7.6-5.766,7.6h-4.1l7.9-10.165-8.328-10.463h4.569l5.723,7.858,5.765-7.858h4.526l-7.9,10.463,7.516,10.165Z" fill="#dc181b"/>
    <path id="Path_95012" data-name="Path 95012" d="M974.825,540.864c0-4.57-2.936-7.333-8.221-7.084-2.516.119-6.459,1.957-6.085,8.524a7.053,7.053,0,0,0,7.114,6.155c4.142,0,7.192-2.4,7.192-7.595Zm-14.567,7.217v14.044h-3.529V541.112c0-5.338,4.11-11.052,10.49-11.052,6.432,0,11.317,4.1,11.317,10.8,0,6.581-4.912,11.065-10.517,11.065-2.819,0-6.45-1.174-7.761-3.848Z" fill="#dc181b"/>
    <path id="Path_95013" data-name="Path 95013" d="M981.481,551.2V530.572h3.451v2.194c1.69-1.922,4.317-2.664,7.134-2.664v3.758c-.383-.043-4.563-.56-7.134,4.831V551.2Z" fill="#dc181b"/>
    <path id="Path_95014" data-name="Path 95014" d="M1002.956,533.531a6.282,6.282,0,0,0-6.059,6.009h12.683c-.042-3.032-2.223-6.009-6.624-6.009Zm-9.86,7.333c0-5.979,4.27-10.8,10.164-10.8,7.312,0,10.052,4.868,10.052,11.06v1.666H996.94c.255,3.886,3.738,5.94,6.961,5.851a7.49,7.49,0,0,0,5.679-2.509l2.264,2.381a11.542,11.542,0,0,1-8.2,3.42c-6.149,0-10.548-4.616-10.548-11.065Z" fill="#dc181b"/>
    <path id="Path_95015" data-name="Path 95015" d="M1014.993,548.3l2.562-2.269a17,17,0,0,0,1.432,1.483,5.1,5.1,0,0,0,1.956,1.023c2.223.587,6.236.4,6.515-2.614.159-1.718-1.135-2.655-2.573-3.192-1.9-.708-3.933-.966-5.792-1.784a5.238,5.238,0,0,1-3.459-4.95c0-6.207,8.811-7.237,12.814-4.335a19.683,19.683,0,0,1,2.079,1.985l-2.589,2a5.943,5.943,0,0,0-5.2-2.322c-1.332-.02-3.222.56-3.61,2.034-.538,2.044,1.8,2.819,3.316,3.211,2.042.528,4.24.823,6.06,1.963,2.432,1.524,3.068,4.824,2.11,7.4-1.036,2.782-4.046,3.874-6.8,4a10.783,10.783,0,0,1-8.356-3.157l-.471-.475Z" fill="#dc181b"/>
    <path id="Path_95016" data-name="Path 95016" d="M1032.95,548.3l2.562-2.269a16.71,16.71,0,0,0,1.432,1.483,5.093,5.093,0,0,0,1.955,1.023c2.223.587,6.237.4,6.515-2.614.16-1.718-1.135-2.655-2.573-3.192-1.895-.708-3.932-.966-5.791-1.784a5.239,5.239,0,0,1-3.46-4.95c0-6.207,8.811-7.237,12.815-4.335a19.664,19.664,0,0,1,2.078,1.985l-2.589,2c-1.238-1.495-2.507-2.28-5.2-2.322-1.332-.02-3.222.56-3.609,2.034-.538,2.044,1.8,2.819,3.316,3.211,2.042.528,4.24.823,6.06,1.963,2.432,1.524,3.068,4.824,2.109,7.4-1.036,2.782-4.045,3.874-6.8,4a10.781,10.781,0,0,1-8.355-3.157c-.041-.04-.471-.475-.471-.475Z" fill="#dc181b"/>
    <path id="Path_95017" data-name="Path 95017" d="M881.812,526.772l-5.168,14.092h10.8l-5.637-14.092Zm9.609,24.427-2.52-6.79H875.15l-2.52,6.79H869l11.061-28.485h3.972L895.051,551.2Z" fill="#f8820c"/>
    <path id="Path_95018" data-name="Path 95018" d="M897.177,551.2h3.539V522.714h-3.539V551.2Z" fill="#f8820c"/>
    <path id="Path_95019" data-name="Path 95019" d="M906.091,551.2h3.539V531h-3.539v20.2Z" fill="#f8820c"/>
    <path id="Path_95020" data-name="Path 95020" d="M913.1,524.424c0-.061.009-.12.009-.181s-.007-.121-.009-.181a5.238,5.238,0,0,1-5.019-5.054c-.047,0-.1-.005-.142-.008h-.15c-.048,0-.1.007-.143.008a5.237,5.237,0,0,1-5.018,5.054c0,.06-.009.12-.009.181s.007.12.009.181a5.236,5.236,0,0,1,5.018,5.053c.073,0,.144.011.218.011s.144-.008.217-.011a5.237,5.237,0,0,1,5.019-5.053Z" fill="#f8820c"/>
  </g>
</svg>
